<?xml version="1.0" encoding="UTF-8"?>
<svg xmlns="http://www.w3.org/2000/svg" viewBox="0 0 900 620" style="max-width:900px;width:100%;font-family:'Segoe UI',Arial,sans-serif;">
  <!-- Academic Supervisor -->
  <rect x="300" y="10" width="300" height="55" rx="10" fill="#1a5276" stroke="#154360" stroke-width="2"/>
  <text x="450" y="32" text-anchor="middle" fill="#fff" font-size="13" font-weight="bold">Mr. Syed Altaf</text>
  <text x="450" y="50" text-anchor="middle" fill="#d4e6f1" font-size="11">Academic Supervisor</text>

  <!-- Industry Sponsor -->
  <rect x="620" y="110" width="260" height="55" rx="10" fill="#922b21" stroke="#7b241c" stroke-width="2"/>
  <text x="750" y="132" text-anchor="middle" fill="#fff" font-size="13" font-weight="bold">Nabin Singh</text>
  <text x="750" y="150" text-anchor="middle" fill="#fadbd8" font-size="11">Industry Sponsor (Skillup Labs)</text>

  <!-- Team Leader -->
  <rect x="300" y="110" width="300" height="55" rx="10" fill="#2980b9" stroke="#2471a3" stroke-width="2"/>
  <text x="450" y="132" text-anchor="middle" fill="#fff" font-size="13" font-weight="bold">Sanjana Tanwar (K240225)</text>
  <text x="450" y="150" text-anchor="middle" fill="#d4e6f1" font-size="11">Team Leader / Project Manager</text>

  <!-- Connecting Lines -->
  <line x1="450" y1="65" x2="450" y2="110" stroke="#2c3e50" stroke-width="2"/>
  <line x1="600" y1="137" x2="620" y2="137" stroke="#2c3e50" stroke-width="2" stroke-dasharray="6,3"/>

  <!-- Vertical line from team lead -->
  <line x1="450" y1="165" x2="450" y2="210" stroke="#2c3e50" stroke-width="2"/>
  <!-- Horizontal line -->
  <line x1="90" y1="210" x2="810" y2="210" stroke="#2c3e50" stroke-width="2"/>

  <!-- 5 branches -->
  <line x1="90" y1="210" x2="90" y2="240" stroke="#2c3e50" stroke-width="2"/>
  <line x1="270" y1="210" x2="270" y2="240" stroke="#2c3e50" stroke-width="2"/>
  <line x1="450" y1="210" x2="450" y2="240" stroke="#2c3e50" stroke-width="2"/>
  <line x1="630" y1="210" x2="630" y2="240" stroke="#2c3e50" stroke-width="2"/>
  <line x1="810" y1="210" x2="810" y2="240" stroke="#2c3e50" stroke-width="2"/>

  <!-- Team Members -->
  <rect x="10" y="240" width="160" height="70" rx="8" fill="#d4e6f1" stroke="#2980b9" stroke-width="2"/>
  <text x="90" y="262" text-anchor="middle" fill="#1a5276" font-size="11" font-weight="bold">Jubair Zaman Dipto</text>
  <text x="90" y="278" text-anchor="middle" fill="#2c3e50" font-size="10">K240568</text>
  <text x="90" y="298" text-anchor="middle" fill="#2980b9" font-size="10">Full-Stack / Tech Lead</text>

  <rect x="190" y="240" width="160" height="70" rx="8" fill="#d4e6f1" stroke="#2980b9" stroke-width="2"/>
  <text x="270" y="262" text-anchor="middle" fill="#1a5276" font-size="11" font-weight="bold">S M Nalid Maola</text>
  <text x="270" y="278" text-anchor="middle" fill="#2c3e50" font-size="10">K231528</text>
  <text x="270" y="298" text-anchor="middle" fill="#2980b9" font-size="10">Backend Developer</text>

  <rect x="370" y="240" width="160" height="70" rx="8" fill="#d4e6f1" stroke="#2980b9" stroke-width="2"/>
  <text x="450" y="262" text-anchor="middle" fill="#1a5276" font-size="11" font-weight="bold">Nabil Ashrafi</text>
  <text x="450" y="278" text-anchor="middle" fill="#2c3e50" font-size="10">K231720</text>
  <text x="450" y="298" text-anchor="middle" fill="#2980b9" font-size="10">Frontend Developer</text>

  <rect x="550" y="240" width="160" height="70" rx="8" fill="#d4e6f1" stroke="#2980b9" stroke-width="2"/>
  <text x="630" y="262" text-anchor="middle" fill="#1a5276" font-size="11" font-weight="bold">Md Al Amin Sikder</text>
  <text x="630" y="278" text-anchor="middle" fill="#2c3e50" font-size="10">K240094</text>
  <text x="630" y="298" text-anchor="middle" fill="#2980b9" font-size="10">QA Engineer / Tester</text>

  <rect x="730" y="240" width="160" height="70" rx="8" fill="#d4e6f1" stroke="#2980b9" stroke-width="2"/>
  <text x="810" y="262" text-anchor="middle" fill="#1a5276" font-size="11" font-weight="bold">Tranpreet Kaur Kumar</text>
  <text x="810" y="278" text-anchor="middle" fill="#2c3e50" font-size="10">K241957</text>
  <text x="810" y="298" text-anchor="middle" fill="#2980b9" font-size="10">UI/UX Designer</text>

  <!-- Responsibility areas -->
  <rect x="10" y="340" width="160" height="40" rx="5" fill="#ebf5fb" stroke="#aed6f1" stroke-width="1"/>
  <text x="90" y="360" text-anchor="middle" fill="#2c3e50" font-size="9">Architecture, APIs</text>
  <text x="90" y="373" text-anchor="middle" fill="#2c3e50" font-size="9">Full-Stack Integration</text>

  <rect x="190" y="340" width="160" height="40" rx="5" fill="#ebf5fb" stroke="#aed6f1" stroke-width="1"/>
  <text x="270" y="360" text-anchor="middle" fill="#2c3e50" font-size="9">REST APIs, Database</text>
  <text x="270" y="373" text-anchor="middle" fill="#2c3e50" font-size="9">Business Logic, Auth</text>

  <rect x="370" y="340" width="160" height="40" rx="5" fill="#ebf5fb" stroke="#aed6f1" stroke-width="1"/>
  <text x="450" y="360" text-anchor="middle" fill="#2c3e50" font-size="9">React Components</text>
  <text x="450" y="373" text-anchor="middle" fill="#2c3e50" font-size="9">Responsive UI, State</text>

  <rect x="550" y="340" width="160" height="40" rx="5" fill="#ebf5fb" stroke="#aed6f1" stroke-width="1"/>
  <text x="630" y="360" text-anchor="middle" fill="#2c3e50" font-size="9">Test Plans, Automation</text>
  <text x="630" y="373" text-anchor="middle" fill="#2c3e50" font-size="9">Bug Tracking, CI/CD</text>

  <rect x="730" y="340" width="160" height="40" rx="5" fill="#ebf5fb" stroke="#aed6f1" stroke-width="1"/>
  <text x="810" y="360" text-anchor="middle" fill="#2c3e50" font-size="9">Wireframes, UX</text>
  <text x="810" y="373" text-anchor="middle" fill="#2c3e50" font-size="9">Accessibility, Docs</text>

  <!-- Legend -->
  <rect x="180" y="430" width="18" height="18" rx="4" fill="#1a5276"/>
  <text x="205" y="444" fill="#2c3e50" font-size="11">Academic Supervisor</text>
  <rect x="370" y="430" width="18" height="18" rx="4" fill="#2980b9"/>
  <text x="395" y="444" fill="#2c3e50" font-size="11">Team Leader</text>
  <rect x="510" y="430" width="18" height="18" rx="4" fill="#d4e6f1" stroke="#2980b9" stroke-width="1"/>
  <text x="535" y="444" fill="#2c3e50" font-size="11">Team Member</text>
  <rect x="660" y="430" width="18" height="18" rx="4" fill="#922b21"/>
  <text x="685" y="444" fill="#2c3e50" font-size="11">Industry Sponsor</text>
</svg>