<?xml version="1.0" encoding="UTF-8"?>
<svg xmlns="http://www.w3.org/2000/svg" viewBox="0 0 750 420" style="max-width:750px;width:100%;font-family:Segoe UI,Arial,sans-serif;background:#ffffff;border:1.5px solid #ccc;border-radius:8px;">
<defs><marker id="ah7" viewBox="0 0 10 7" refX="9" refY="3.5" markerWidth="8" markerHeight="6" orient="auto"><polygon points="0 0,10 3.5,0 7" fill="#666"/></marker></defs>
<text x="375" y="28" text-anchor="middle" font-size="14" font-weight="bold" fill="#1a5276">Level 2.5 — Messaging System</text>
<line x1="250" y1="71" x2="180" y2="202" stroke="#888" stroke-width="1.5" marker-end="url(#ah7)"/>
<text x="218" y="130" text-anchor="middle" font-size="8" fill="#555" font-style="italic">Plaintext Msg</text>
<line x1="180" y1="202" x2="200" y2="202" stroke="#888" stroke-width="1.5" marker-end="url(#ah7)"/>
<text x="193" y="196" text-anchor="middle" font-size="8" fill="#555" font-style="italic">Encrypted</text>
<line x1="350" y1="202" x2="370" y2="202" stroke="#888" stroke-width="1.5" marker-end="url(#ah7)"/>
<text x="363" y="196" text-anchor="middle" font-size="8" fill="#555" font-style="italic">Delivered</text>
<line x1="275" y1="170" x2="322" y2="92" stroke="#888" stroke-width="1.5" marker-end="url(#ah7)"/>
<text x="301" y="124" text-anchor="start" font-size="8" fill="#555" font-style="italic">Real-time</text>
<line x1="395" y1="71" x2="540" y2="202" stroke="#888" stroke-width="1.5" marker-end="url(#ah7)"/>
<text x="470" y="130" text-anchor="middle" font-size="8" fill="#555" font-style="italic">Delete Req</text>
<line x1="180" y1="202" x2="220" y2="357" stroke="#888" stroke-width="1.5" marker-end="url(#ah7)"/>
<text x="203" y="273" text-anchor="middle" font-size="8" fill="#555" font-style="italic">Encrypted Store</text>
<line x1="445" y1="235" x2="317" y2="340" stroke="#888" stroke-width="1.5" marker-end="url(#ah7)"/>
<text x="384" y="280" text-anchor="start" font-size="8" fill="#555" font-style="italic">Transcript</text>
<line x1="540" y1="202" x2="415" y2="357" stroke="#888" stroke-width="1.5" marker-end="url(#ah7)"/>
<text x="480" y="273" text-anchor="middle" font-size="8" fill="#555" font-style="italic">Soft Delete</text>
<rect x="250" y="50" width="145" height="42" fill="#f8cecc" stroke="#b85450" stroke-width="2" rx="2"/>
<text x="322" y="76" text-anchor="middle" font-size="11" font-weight="bold" fill="#922b21">E1: Patient / User</text>
<rect x="220" y="340" width="195" height="34" fill="#d5f5e3" stroke="none"/>
<line x1="220" y1="340" x2="415" y2="340" stroke="#82b366" stroke-width="2"/>
<line x1="220" y1="374" x2="415" y2="374" stroke="#82b366" stroke-width="2"/>
<line x1="220" y1="340" x2="220" y2="374" stroke="#82b366" stroke-width="2"/>
<line x1="262" y1="340" x2="262" y2="374" stroke="#82b366" stroke-width="1.5"/>
<text x="241" y="362" text-anchor="middle" font-size="10" font-weight="bold" fill="#1e8449">D5</text>
<text x="338" y="362" text-anchor="middle" font-size="10" fill="#1e8449">Chat Messages</text>
<rect x="30" y="170" width="150" height="65" rx="10" fill="#dae8fc" stroke="#6c8ebf" stroke-width="2"/>
<line x1="30" y1="192" x2="180" y2="192" stroke="#6c8ebf" stroke-width="1.5"/>
<text x="105" y="186" text-anchor="middle" font-size="11" font-weight="bold" fill="#1a5276">5.1</text>
<text x="105" y="206" text-anchor="middle" font-size="10" fill="#1a5276">Encrypt Msg</text>
<text x="105" y="219" text-anchor="middle" font-size="10" fill="#1a5276">AES-256</text>
<text x="105" y="231" text-anchor="middle" font-size="7" fill="#888">FR23</text>
<rect x="200" y="170" width="150" height="65" rx="10" fill="#dae8fc" stroke="#6c8ebf" stroke-width="2"/>
<line x1="200" y1="192" x2="350" y2="192" stroke="#6c8ebf" stroke-width="1.5"/>
<text x="275" y="186" text-anchor="middle" font-size="11" font-weight="bold" fill="#1a5276">5.2</text>
<text x="275" y="206" text-anchor="middle" font-size="10" fill="#1a5276">Deliver Msg</text>
<text x="275" y="219" text-anchor="middle" font-size="10" fill="#1a5276">(&lt;2s)</text>
<text x="275" y="231" text-anchor="middle" font-size="7" fill="#888">FR24</text>
<rect x="370" y="170" width="150" height="65" rx="10" fill="#dae8fc" stroke="#6c8ebf" stroke-width="2"/>
<line x1="370" y1="192" x2="520" y2="192" stroke="#6c8ebf" stroke-width="1.5"/>
<text x="445" y="186" text-anchor="middle" font-size="11" font-weight="bold" fill="#1a5276">5.3</text>
<text x="445" y="206" text-anchor="middle" font-size="10" fill="#1a5276">Store Chat</text>
<text x="445" y="219" text-anchor="middle" font-size="10" fill="#1a5276">Transcript</text>
<text x="445" y="231" text-anchor="middle" font-size="7" fill="#888">FR25</text>
<rect x="540" y="170" width="150" height="65" rx="10" fill="#dae8fc" stroke="#6c8ebf" stroke-width="2"/>
<line x1="540" y1="192" x2="690" y2="192" stroke="#6c8ebf" stroke-width="1.5"/>
<text x="615" y="186" text-anchor="middle" font-size="11" font-weight="bold" fill="#1a5276">5.4</text>
<text x="615" y="206" text-anchor="middle" font-size="10" fill="#1a5276">Soft Delete</text>
<text x="615" y="219" text-anchor="middle" font-size="10" fill="#1a5276">Message</text>
<text x="615" y="231" text-anchor="middle" font-size="7" fill="#888">FR26</text>
</svg>