<?xml version="1.0" encoding="UTF-8"?>
<svg xmlns="http://www.w3.org/2000/svg" viewBox="0 0 900 500" style="max-width:900px;width:100%;font-family:Segoe UI,Arial,sans-serif;background:#ffffff;border:1.5px solid #ccc;border-radius:8px;">
<defs><marker id="ah11" viewBox="0 0 10 7" refX="9" refY="3.5" markerWidth="8" markerHeight="6" orient="auto"><polygon points="0 0,10 3.5,0 7" fill="#666"/></marker></defs>
<text x="450" y="28" text-anchor="middle" font-size="14" font-weight="bold" fill="#1a5276">Level 2.9 — Notification Engine</text>
<line x1="105" y1="180" x2="102" y2="92" stroke="#888" stroke-width="1.5" marker-end="url(#ah11)"/>
<text x="106" y="129" text-anchor="start" font-size="8" fill="#555" font-style="italic">Confirmed</text>
<line x1="200" y1="212" x2="175" y2="71" stroke="#888" stroke-width="1.5" marker-end="url(#ah11)"/>
<text x="190" y="135" text-anchor="middle" font-size="8" fill="#555" font-style="italic">Wellness</text>
<line x1="485" y1="180" x2="622" y2="92" stroke="#888" stroke-width="1.5" marker-end="url(#ah11)"/>
<text x="556" y="129" text-anchor="start" font-size="8" fill="#555" font-style="italic">SMS Payload</text>
<line x1="560" y1="212" x2="720" y2="71" stroke="#888" stroke-width="1.5" marker-end="url(#ah11)"/>
<text x="643" y="135" text-anchor="middle" font-size="8" fill="#555" font-style="italic">Email</text>
<line x1="560" y1="212" x2="600" y2="212" stroke="#888" stroke-width="1.5" marker-end="url(#ah11)"/>
<text x="583" y="206" text-anchor="middle" font-size="8" fill="#555" font-style="italic">Failed Call</text>
<line x1="600" y1="212" x2="560" y2="212" stroke="#888" stroke-width="1.5" marker-end="url(#ah11)"/>
<text x="583" y="206" text-anchor="middle" font-size="8" fill="#555" font-style="italic">Retry</text>
<line x1="200" y1="362" x2="180" y2="212" stroke="#888" stroke-width="1.5" marker-end="url(#ah11)"/>
<text x="193" y="281" text-anchor="middle" font-size="8" fill="#555" font-style="italic">Dequeued</text>
<line x1="105" y1="245" x2="177" y2="430" stroke="#888" stroke-width="1.5" marker-end="url(#ah11)"/>
<text x="144" y="330" text-anchor="start" font-size="8" fill="#555" font-style="italic">Sent Status</text>
<line x1="275" y1="245" x2="177" y2="430" stroke="#888" stroke-width="1.5" marker-end="url(#ah11)"/>
<text x="229" y="330" text-anchor="start" font-size="8" fill="#555" font-style="italic">Queued</text>
<line x1="200" y1="362" x2="275" y2="447" stroke="#888" stroke-width="1.5" marker-end="url(#ah11)"/>
<text x="240" y="398" text-anchor="middle" font-size="8" fill="#555" font-style="italic">Queue Data</text>
<line x1="410" y1="362" x2="275" y2="447" stroke="#888" stroke-width="1.5" marker-end="url(#ah11)"/>
<text x="345" y="398" text-anchor="middle" font-size="8" fill="#555" font-style="italic">Follow-up</text>
<line x1="485" y1="395" x2="517" y2="430" stroke="#888" stroke-width="1.5" marker-end="url(#ah11)"/>
<text x="504" y="405" text-anchor="start" font-size="8" fill="#555" font-style="italic">Appt Lookup</text>
<rect x="30" y="50" width="145" height="42" fill="#f8cecc" stroke="#b85450" stroke-width="2" rx="2"/>
<text x="102" y="76" text-anchor="middle" font-size="11" font-weight="bold" fill="#922b21">E1: Patient/User</text>
<rect x="550" y="50" width="145" height="42" fill="#f8cecc" stroke="#b85450" stroke-width="2" rx="2"/>
<text x="622" y="76" text-anchor="middle" font-size="11" font-weight="bold" fill="#922b21">E4: SMS Gateway</text>
<rect x="720" y="50" width="145" height="42" fill="#f8cecc" stroke="#b85450" stroke-width="2" rx="2"/>
<text x="792" y="76" text-anchor="middle" font-size="11" font-weight="bold" fill="#922b21">E6: Email Service</text>
<rect x="80" y="430" width="195" height="34" fill="#d5f5e3" stroke="none"/>
<line x1="80" y1="430" x2="275" y2="430" stroke="#82b366" stroke-width="2"/>
<line x1="80" y1="464" x2="275" y2="464" stroke="#82b366" stroke-width="2"/>
<line x1="80" y1="430" x2="80" y2="464" stroke="#82b366" stroke-width="2"/>
<line x1="122" y1="430" x2="122" y2="464" stroke="#82b366" stroke-width="1.5"/>
<text x="101" y="452" text-anchor="middle" font-size="10" font-weight="bold" fill="#1e8449">D9</text>
<text x="198" y="452" text-anchor="middle" font-size="10" fill="#1e8449">Notification Queue</text>
<rect x="420" y="430" width="195" height="34" fill="#d5f5e3" stroke="none"/>
<line x1="420" y1="430" x2="615" y2="430" stroke="#82b366" stroke-width="2"/>
<line x1="420" y1="464" x2="615" y2="464" stroke="#82b366" stroke-width="2"/>
<line x1="420" y1="430" x2="420" y2="464" stroke="#82b366" stroke-width="2"/>
<line x1="462" y1="430" x2="462" y2="464" stroke="#82b366" stroke-width="1.5"/>
<text x="441" y="452" text-anchor="middle" font-size="10" font-weight="bold" fill="#1e8449">D3</text>
<text x="538" y="452" text-anchor="middle" font-size="10" fill="#1e8449">Appointments</text>
<rect x="30" y="180" width="150" height="65" rx="10" fill="#dae8fc" stroke="#6c8ebf" stroke-width="2"/>
<line x1="30" y1="202" x2="180" y2="202" stroke="#6c8ebf" stroke-width="1.5"/>
<text x="105" y="196" text-anchor="middle" font-size="11" font-weight="bold" fill="#1a5276">9.1</text>
<text x="105" y="216" text-anchor="middle" font-size="10" fill="#1a5276">Booking</text>
<text x="105" y="229" text-anchor="middle" font-size="10" fill="#1a5276">Confirmation</text>
<text x="105" y="241" text-anchor="middle" font-size="7" fill="#888">FR13</text>
<rect x="200" y="180" width="150" height="65" rx="10" fill="#dae8fc" stroke="#6c8ebf" stroke-width="2"/>
<line x1="200" y1="202" x2="350" y2="202" stroke="#6c8ebf" stroke-width="1.5"/>
<text x="275" y="196" text-anchor="middle" font-size="11" font-weight="bold" fill="#1a5276">9.2</text>
<text x="275" y="216" text-anchor="middle" font-size="10" fill="#1a5276">Wellness</text>
<text x="275" y="229" text-anchor="middle" font-size="10" fill="#1a5276">Check</text>
<text x="275" y="241" text-anchor="middle" font-size="7" fill="#888">FR37</text>
<rect x="410" y="180" width="150" height="65" rx="10" fill="#dae8fc" stroke="#6c8ebf" stroke-width="2"/>
<line x1="410" y1="202" x2="560" y2="202" stroke="#6c8ebf" stroke-width="1.5"/>
<text x="485" y="196" text-anchor="middle" font-size="11" font-weight="bold" fill="#1a5276">9.3</text>
<text x="485" y="216" text-anchor="middle" font-size="10" fill="#1a5276">SMS/Email</text>
<text x="485" y="229" text-anchor="middle" font-size="10" fill="#1a5276">Integration</text>
<text x="485" y="241" text-anchor="middle" font-size="7" fill="#888">FR57</text>
<rect x="600" y="180" width="150" height="65" rx="10" fill="#dae8fc" stroke="#6c8ebf" stroke-width="2"/>
<line x1="600" y1="202" x2="750" y2="202" stroke="#6c8ebf" stroke-width="1.5"/>
<text x="675" y="196" text-anchor="middle" font-size="11" font-weight="bold" fill="#1a5276">9.4</text>
<text x="675" y="216" text-anchor="middle" font-size="10" fill="#1a5276">Retry Failed</text>
<text x="675" y="229" text-anchor="middle" font-size="10" fill="#1a5276">Calls (x3)</text>
<text x="675" y="241" text-anchor="middle" font-size="7" fill="#888">FR58</text>
<rect x="200" y="330" width="150" height="65" rx="10" fill="#dae8fc" stroke="#6c8ebf" stroke-width="2"/>
<line x1="200" y1="352" x2="350" y2="352" stroke="#6c8ebf" stroke-width="1.5"/>
<text x="275" y="346" text-anchor="middle" font-size="11" font-weight="bold" fill="#1a5276">9.5</text>
<text x="275" y="366" text-anchor="middle" font-size="10" fill="#1a5276">Queue During</text>
<text x="275" y="379" text-anchor="middle" font-size="10" fill="#1a5276">Downtime</text>
<text x="275" y="391" text-anchor="middle" font-size="7" fill="#888">FR59</text>
<rect x="410" y="330" width="150" height="65" rx="10" fill="#dae8fc" stroke="#6c8ebf" stroke-width="2"/>
<line x1="410" y1="352" x2="560" y2="352" stroke="#6c8ebf" stroke-width="1.5"/>
<text x="485" y="346" text-anchor="middle" font-size="11" font-weight="bold" fill="#1a5276">9.6</text>
<text x="485" y="366" text-anchor="middle" font-size="10" fill="#1a5276">Missed Appt</text>
<text x="485" y="379" text-anchor="middle" font-size="10" fill="#1a5276">Follow-up</text>
<text x="485" y="391" text-anchor="middle" font-size="7" fill="#888">FR68</text>
</svg>