<?xml version="1.0" encoding="UTF-8"?>
<svg xmlns="http://www.w3.org/2000/svg" viewBox="0 0 900 500" style="max-width:900px;width:100%;font-family:Segoe UI,Arial,sans-serif;background:#ffffff;border:1.5px solid #ccc;border-radius:8px;">
<defs><marker id="ah13" viewBox="0 0 10 7" refX="9" refY="3.5" markerWidth="8" markerHeight="6" orient="auto"><polygon points="0 0,10 3.5,0 7" fill="#666"/></marker></defs>
<text x="450" y="28" text-anchor="middle" font-size="14" font-weight="bold" fill="#1a5276">Level 2.11 — Analytics &amp; Reporting</text>
<line x1="180" y1="212" x2="350" y2="71" stroke="#888" stroke-width="1.5" marker-end="url(#ah13)"/>
<text x="268" y="135" text-anchor="middle" font-size="8" fill="#555" font-style="italic">Monthly Report</text>
<line x1="540" y1="212" x2="495" y2="71" stroke="#888" stroke-width="1.5" marker-end="url(#ah13)"/>
<text x="520" y="135" text-anchor="middle" font-size="8" fill="#555" font-style="italic">Compliance</text>
<line x1="615" y1="330" x2="422" y2="92" stroke="#888" stroke-width="1.5" marker-end="url(#ah13)"/>
<text x="521" y="204" text-anchor="start" font-size="8" fill="#555" font-style="italic">CSV File</text>
<line x1="105" y1="245" x2="127" y2="430" stroke="#888" stroke-width="1.5" marker-end="url(#ah13)"/>
<text x="119" y="330" text-anchor="start" font-size="8" fill="#555" font-style="italic">Analytics</text>
<line x1="540" y1="362" x2="225" y2="447" stroke="#888" stroke-width="1.5" marker-end="url(#ah13)"/>
<text x="385" y="398" text-anchor="middle" font-size="8" fill="#555" font-style="italic">Export Data</text>
<line x1="350" y1="362" x2="300" y2="447" stroke="#888" stroke-width="1.5" marker-end="url(#ah13)"/>
<text x="328" y="398" text-anchor="middle" font-size="8" fill="#555" font-style="italic">Mod Log</text>
<line x1="615" y1="245" x2="397" y2="430" stroke="#888" stroke-width="1.5" marker-end="url(#ah13)"/>
<text x="509" y="330" text-anchor="start" font-size="8" fill="#555" font-style="italic">Audit Read</text>
<line x1="350" y1="212" x2="530" y2="447" stroke="#888" stroke-width="1.5" marker-end="url(#ah13)"/>
<text x="443" y="323" text-anchor="middle" font-size="8" fill="#555" font-style="italic">Session Data</text>
<line x1="520" y1="212" x2="720" y2="447" stroke="#888" stroke-width="1.5" marker-end="url(#ah13)"/>
<text x="623" y="323" text-anchor="middle" font-size="8" fill="#555" font-style="italic">Workload Query</text>
<rect x="350" y="50" width="145" height="42" fill="#f8cecc" stroke="#b85450" stroke-width="2" rx="2"/>
<text x="422" y="76" text-anchor="middle" font-size="11" font-weight="bold" fill="#922b21">E3: Administrator</text>
<rect x="30" y="430" width="195" height="34" fill="#d5f5e3" stroke="none"/>
<line x1="30" y1="430" x2="225" y2="430" stroke="#82b366" stroke-width="2"/>
<line x1="30" y1="464" x2="225" y2="464" stroke="#82b366" stroke-width="2"/>
<line x1="30" y1="430" x2="30" y2="464" stroke="#82b366" stroke-width="2"/>
<line x1="72" y1="430" x2="72" y2="464" stroke="#82b366" stroke-width="1.5"/>
<text x="51" y="452" text-anchor="middle" font-size="10" font-weight="bold" fill="#1e8449">D11</text>
<text x="148" y="452" text-anchor="middle" font-size="10" fill="#1e8449">Analytics Data</text>
<rect x="300" y="430" width="195" height="34" fill="#d5f5e3" stroke="none"/>
<line x1="300" y1="430" x2="495" y2="430" stroke="#82b366" stroke-width="2"/>
<line x1="300" y1="464" x2="495" y2="464" stroke="#82b366" stroke-width="2"/>
<line x1="300" y1="430" x2="300" y2="464" stroke="#82b366" stroke-width="2"/>
<line x1="342" y1="430" x2="342" y2="464" stroke="#82b366" stroke-width="1.5"/>
<text x="321" y="452" text-anchor="middle" font-size="10" font-weight="bold" fill="#1e8449">D12</text>
<text x="418" y="452" text-anchor="middle" font-size="10" fill="#1e8449">Audit Logs</text>
<rect x="530" y="430" width="195" height="34" fill="#d5f5e3" stroke="none"/>
<line x1="530" y1="430" x2="725" y2="430" stroke="#82b366" stroke-width="2"/>
<line x1="530" y1="464" x2="725" y2="464" stroke="#82b366" stroke-width="2"/>
<line x1="530" y1="430" x2="530" y2="464" stroke="#82b366" stroke-width="2"/>
<line x1="572" y1="430" x2="572" y2="464" stroke="#82b366" stroke-width="1.5"/>
<text x="551" y="452" text-anchor="middle" font-size="10" font-weight="bold" fill="#1e8449">D15</text>
<text x="648" y="452" text-anchor="middle" font-size="10" fill="#1e8449">Session Data</text>
<rect x="720" y="430" width="195" height="34" fill="#d5f5e3" stroke="none"/>
<line x1="720" y1="430" x2="915" y2="430" stroke="#82b366" stroke-width="2"/>
<line x1="720" y1="464" x2="915" y2="464" stroke="#82b366" stroke-width="2"/>
<line x1="720" y1="430" x2="720" y2="464" stroke="#82b366" stroke-width="2"/>
<line x1="762" y1="430" x2="762" y2="464" stroke="#82b366" stroke-width="1.5"/>
<text x="741" y="452" text-anchor="middle" font-size="10" font-weight="bold" fill="#1e8449">D3</text>
<text x="838" y="452" text-anchor="middle" font-size="10" fill="#1e8449">Appointments</text>
<rect x="30" y="180" width="150" height="65" rx="10" fill="#dae8fc" stroke="#6c8ebf" stroke-width="2"/>
<line x1="30" y1="202" x2="180" y2="202" stroke="#6c8ebf" stroke-width="1.5"/>
<text x="105" y="196" text-anchor="middle" font-size="11" font-weight="bold" fill="#1a5276">11.1</text>
<text x="105" y="216" text-anchor="middle" font-size="10" fill="#1a5276">Monthly</text>
<text x="105" y="229" text-anchor="middle" font-size="10" fill="#1a5276">Reports</text>
<text x="105" y="241" text-anchor="middle" font-size="7" fill="#888">FR44</text>
<rect x="200" y="180" width="150" height="65" rx="10" fill="#dae8fc" stroke="#6c8ebf" stroke-width="2"/>
<line x1="200" y1="202" x2="350" y2="202" stroke="#6c8ebf" stroke-width="1.5"/>
<text x="275" y="196" text-anchor="middle" font-size="11" font-weight="bold" fill="#1a5276">11.2</text>
<text x="275" y="216" text-anchor="middle" font-size="10" fill="#1a5276">Session</text>
<text x="275" y="229" text-anchor="middle" font-size="10" fill="#1a5276">Duration</text>
<text x="275" y="241" text-anchor="middle" font-size="7" fill="#888">FR61</text>
<rect x="370" y="180" width="150" height="65" rx="10" fill="#dae8fc" stroke="#6c8ebf" stroke-width="2"/>
<line x1="370" y1="202" x2="520" y2="202" stroke="#6c8ebf" stroke-width="1.5"/>
<text x="445" y="196" text-anchor="middle" font-size="11" font-weight="bold" fill="#1a5276">11.3</text>
<text x="445" y="216" text-anchor="middle" font-size="10" fill="#1a5276">Clinician</text>
<text x="445" y="229" text-anchor="middle" font-size="10" fill="#1a5276">Workload</text>
<text x="445" y="241" text-anchor="middle" font-size="7" fill="#888">FR70</text>
<rect x="540" y="180" width="150" height="65" rx="10" fill="#dae8fc" stroke="#6c8ebf" stroke-width="2"/>
<line x1="540" y1="202" x2="690" y2="202" stroke="#6c8ebf" stroke-width="1.5"/>
<text x="615" y="196" text-anchor="middle" font-size="11" font-weight="bold" fill="#1a5276">11.4</text>
<text x="615" y="216" text-anchor="middle" font-size="10" fill="#1a5276">Compliance</text>
<text x="615" y="229" text-anchor="middle" font-size="10" fill="#1a5276">Reports</text>
<text x="615" y="241" text-anchor="middle" font-size="7" fill="#888">FR71</text>
<rect x="200" y="330" width="150" height="65" rx="10" fill="#dae8fc" stroke="#6c8ebf" stroke-width="2"/>
<line x1="200" y1="352" x2="350" y2="352" stroke="#6c8ebf" stroke-width="1.5"/>
<text x="275" y="346" text-anchor="middle" font-size="11" font-weight="bold" fill="#1a5276">11.5</text>
<text x="275" y="366" text-anchor="middle" font-size="10" fill="#1a5276">Log Data</text>
<text x="275" y="379" text-anchor="middle" font-size="10" fill="#1a5276">Mods</text>
<text x="275" y="391" text-anchor="middle" font-size="7" fill="#888">FR72</text>
<rect x="540" y="330" width="150" height="65" rx="10" fill="#dae8fc" stroke="#6c8ebf" stroke-width="2"/>
<line x1="540" y1="352" x2="690" y2="352" stroke="#6c8ebf" stroke-width="1.5"/>
<text x="615" y="346" text-anchor="middle" font-size="11" font-weight="bold" fill="#1a5276">11.6</text>
<text x="615" y="366" text-anchor="middle" font-size="10" fill="#1a5276">Export</text>
<text x="615" y="379" text-anchor="middle" font-size="10" fill="#1a5276">CSV</text>
<text x="615" y="391" text-anchor="middle" font-size="7" fill="#888">FR74</text>
</svg>