<?xml version="1.0" encoding="UTF-8"?>
<svg xmlns="http://www.w3.org/2000/svg" viewBox="0 0 900 520" style="max-width:900px;width:100%;font-family:Segoe UI,Arial,sans-serif;background:#ffffff;border:1.5px solid #ccc;border-radius:8px;">
<defs><marker id="ah3" viewBox="0 0 10 7" refX="9" refY="3.5" markerWidth="8" markerHeight="6" orient="auto"><polygon points="0 0,10 3.5,0 7" fill="#666"/></marker></defs>
<text x="450" y="28" text-anchor="middle" font-size="14" font-weight="bold" fill="#1a5276">Level 2.1 — Authentication &amp; Account Management</text>
<line x1="340" y1="61" x2="180" y2="192" stroke="#888" stroke-width="1.5" marker-end="url(#ah3)"/>
<text x="263" y="120" text-anchor="middle" font-size="8" fill="#555" font-style="italic">Registration</text>
<line x1="340" y1="61" x2="350" y2="192" stroke="#888" stroke-width="1.5" marker-end="url(#ah3)"/>
<text x="348" y="120" text-anchor="middle" font-size="8" fill="#555" font-style="italic">OTP Code</text>
<line x1="485" y1="61" x2="540" y2="192" stroke="#888" stroke-width="1.5" marker-end="url(#ah3)"/>
<text x="515" y="120" text-anchor="middle" font-size="8" fill="#555" font-style="italic">Reset Req</text>
<line x1="412" y1="82" x2="445" y2="310" stroke="#888" stroke-width="1.5" marker-end="url(#ah3)"/>
<text x="431" y="189" text-anchor="start" font-size="8" fill="#555" font-style="italic">Login Req</text>
<line x1="445" y1="310" x2="412" y2="82" stroke="#888" stroke-width="1.5" marker-end="url(#ah3)"/>
<text x="431" y="189" text-anchor="start" font-size="8" fill="#555" font-style="italic">Auth Token</text>
<line x1="412" y1="82" x2="615" y2="310" stroke="#888" stroke-width="1.5" marker-end="url(#ah3)"/>
<text x="516" y="189" text-anchor="start" font-size="8" fill="#555" font-style="italic">Delete Req</text>
<line x1="180" y1="192" x2="200" y2="192" stroke="#888" stroke-width="1.5" marker-end="url(#ah3)"/>
<text x="193" y="186" text-anchor="middle" font-size="8" fill="#555" font-style="italic">Account Created</text>
<line x1="350" y1="192" x2="370" y2="192" stroke="#888" stroke-width="1.5" marker-end="url(#ah3)"/>
<text x="363" y="186" text-anchor="middle" font-size="8" fill="#555" font-style="italic">Failed Attempts</text>
<line x1="370" y1="342" x2="350" y2="342" stroke="#888" stroke-width="1.5" marker-end="url(#ah3)"/>
<text x="363" y="336" text-anchor="middle" font-size="8" fill="#555" font-style="italic">Login Event</text>
<line x1="105" y1="225" x2="127" y2="440" stroke="#888" stroke-width="1.5" marker-end="url(#ah3)"/>
<text x="119" y="325" text-anchor="start" font-size="8" fill="#555" font-style="italic">New User</text>
<line x1="275" y1="225" x2="127" y2="440" stroke="#888" stroke-width="1.5" marker-end="url(#ah3)"/>
<text x="204" y="325" text-anchor="start" font-size="8" fill="#555" font-style="italic">Verified</text>
<line x1="370" y1="192" x2="225" y2="457" stroke="#888" stroke-width="1.5" marker-end="url(#ah3)"/>
<text x="300" y="318" text-anchor="middle" font-size="8" fill="#555" font-style="italic">Lock Flag</text>
<line x1="540" y1="192" x2="225" y2="457" stroke="#888" stroke-width="1.5" marker-end="url(#ah3)"/>
<text x="385" y="318" text-anchor="middle" font-size="8" fill="#555" font-style="italic">New Password</text>
<line x1="540" y1="342" x2="225" y2="457" stroke="#888" stroke-width="1.5" marker-end="url(#ah3)"/>
<text x="385" y="393" text-anchor="middle" font-size="8" fill="#555" font-style="italic">Anonymized</text>
<line x1="350" y1="342" x2="350" y2="457" stroke="#888" stroke-width="1.5" marker-end="url(#ah3)"/>
<text x="353" y="393" text-anchor="middle" font-size="8" fill="#555" font-style="italic">Login Log</text>
<line x1="520" y1="342" x2="620" y2="457" stroke="#888" stroke-width="1.5" marker-end="url(#ah3)"/>
<text x="573" y="393" text-anchor="middle" font-size="8" fill="#555" font-style="italic">Session</text>
<rect x="340" y="40" width="145" height="42" fill="#f8cecc" stroke="#b85450" stroke-width="2" rx="2"/>
<text x="412" y="66" text-anchor="middle" font-size="11" font-weight="bold" fill="#922b21">E1: Patient / User</text>
<rect x="30" y="440" width="195" height="34" fill="#d5f5e3" stroke="none"/>
<line x1="30" y1="440" x2="225" y2="440" stroke="#82b366" stroke-width="2"/>
<line x1="30" y1="474" x2="225" y2="474" stroke="#82b366" stroke-width="2"/>
<line x1="30" y1="440" x2="30" y2="474" stroke="#82b366" stroke-width="2"/>
<line x1="72" y1="440" x2="72" y2="474" stroke="#82b366" stroke-width="1.5"/>
<text x="51" y="462" text-anchor="middle" font-size="10" font-weight="bold" fill="#1e8449">D1</text>
<text x="148" y="462" text-anchor="middle" font-size="10" fill="#1e8449">Users &amp; Credentials</text>
<rect x="350" y="440" width="195" height="34" fill="#d5f5e3" stroke="none"/>
<line x1="350" y1="440" x2="545" y2="440" stroke="#82b366" stroke-width="2"/>
<line x1="350" y1="474" x2="545" y2="474" stroke="#82b366" stroke-width="2"/>
<line x1="350" y1="440" x2="350" y2="474" stroke="#82b366" stroke-width="2"/>
<line x1="392" y1="440" x2="392" y2="474" stroke="#82b366" stroke-width="1.5"/>
<text x="371" y="462" text-anchor="middle" font-size="10" font-weight="bold" fill="#1e8449">D12</text>
<text x="468" y="462" text-anchor="middle" font-size="10" fill="#1e8449">Audit Logs</text>
<rect x="620" y="440" width="195" height="34" fill="#d5f5e3" stroke="none"/>
<line x1="620" y1="440" x2="815" y2="440" stroke="#82b366" stroke-width="2"/>
<line x1="620" y1="474" x2="815" y2="474" stroke="#82b366" stroke-width="2"/>
<line x1="620" y1="440" x2="620" y2="474" stroke="#82b366" stroke-width="2"/>
<line x1="662" y1="440" x2="662" y2="474" stroke="#82b366" stroke-width="1.5"/>
<text x="641" y="462" text-anchor="middle" font-size="10" font-weight="bold" fill="#1e8449">D15</text>
<text x="738" y="462" text-anchor="middle" font-size="10" fill="#1e8449">Session Data</text>
<rect x="30" y="160" width="150" height="65" rx="10" fill="#dae8fc" stroke="#6c8ebf" stroke-width="2"/>
<line x1="30" y1="182" x2="180" y2="182" stroke="#6c8ebf" stroke-width="1.5"/>
<text x="105" y="176" text-anchor="middle" font-size="11" font-weight="bold" fill="#1a5276">1.1</text>
<text x="105" y="196" text-anchor="middle" font-size="10" fill="#1a5276">Register</text>
<text x="105" y="209" text-anchor="middle" font-size="10" fill="#1a5276">User</text>
<text x="105" y="221" text-anchor="middle" font-size="7" fill="#888">FR1</text>
<rect x="200" y="160" width="150" height="65" rx="10" fill="#dae8fc" stroke="#6c8ebf" stroke-width="2"/>
<line x1="200" y1="182" x2="350" y2="182" stroke="#6c8ebf" stroke-width="1.5"/>
<text x="275" y="176" text-anchor="middle" font-size="11" font-weight="bold" fill="#1a5276">1.2</text>
<text x="275" y="196" text-anchor="middle" font-size="10" fill="#1a5276">Verify</text>
<text x="275" y="209" text-anchor="middle" font-size="10" fill="#1a5276">OTP</text>
<text x="275" y="221" text-anchor="middle" font-size="7" fill="#888">FR2</text>
<rect x="370" y="160" width="150" height="65" rx="10" fill="#dae8fc" stroke="#6c8ebf" stroke-width="2"/>
<line x1="370" y1="182" x2="520" y2="182" stroke="#6c8ebf" stroke-width="1.5"/>
<text x="445" y="176" text-anchor="middle" font-size="11" font-weight="bold" fill="#1a5276">1.3</text>
<text x="445" y="196" text-anchor="middle" font-size="10" fill="#1a5276">Lock</text>
<text x="445" y="209" text-anchor="middle" font-size="10" fill="#1a5276">Account</text>
<text x="445" y="221" text-anchor="middle" font-size="7" fill="#888">FR3</text>
<rect x="540" y="160" width="150" height="65" rx="10" fill="#dae8fc" stroke="#6c8ebf" stroke-width="2"/>
<line x1="540" y1="182" x2="690" y2="182" stroke="#6c8ebf" stroke-width="1.5"/>
<text x="615" y="176" text-anchor="middle" font-size="11" font-weight="bold" fill="#1a5276">1.5</text>
<text x="615" y="196" text-anchor="middle" font-size="10" fill="#1a5276">Password</text>
<text x="615" y="209" text-anchor="middle" font-size="10" fill="#1a5276">Reset</text>
<text x="615" y="221" text-anchor="middle" font-size="7" fill="#888">FR5</text>
<rect x="200" y="310" width="150" height="65" rx="10" fill="#dae8fc" stroke="#6c8ebf" stroke-width="2"/>
<line x1="200" y1="332" x2="350" y2="332" stroke="#6c8ebf" stroke-width="1.5"/>
<text x="275" y="326" text-anchor="middle" font-size="11" font-weight="bold" fill="#1a5276">1.4</text>
<text x="275" y="346" text-anchor="middle" font-size="10" fill="#1a5276">Log Login</text>
<text x="275" y="359" text-anchor="middle" font-size="10" fill="#1a5276">Activity</text>
<text x="275" y="371" text-anchor="middle" font-size="7" fill="#888">FR4</text>
<rect x="370" y="310" width="150" height="65" rx="10" fill="#dae8fc" stroke="#6c8ebf" stroke-width="2"/>
<line x1="370" y1="332" x2="520" y2="332" stroke="#6c8ebf" stroke-width="1.5"/>
<text x="445" y="326" text-anchor="middle" font-size="11" font-weight="bold" fill="#1a5276">1.6</text>
<text x="445" y="346" text-anchor="middle" font-size="10" fill="#1a5276">Login /</text>
<text x="445" y="359" text-anchor="middle" font-size="10" fill="#1a5276">Logout</text>
<text x="445" y="371" text-anchor="middle" font-size="7" fill="#888">FR8</text>
<rect x="540" y="310" width="150" height="65" rx="10" fill="#dae8fc" stroke="#6c8ebf" stroke-width="2"/>
<line x1="540" y1="332" x2="690" y2="332" stroke="#6c8ebf" stroke-width="1.5"/>
<text x="615" y="326" text-anchor="middle" font-size="11" font-weight="bold" fill="#1a5276">1.7</text>
<text x="615" y="346" text-anchor="middle" font-size="10" fill="#1a5276">Delete &amp;</text>
<text x="615" y="359" text-anchor="middle" font-size="10" fill="#1a5276">Anonymize</text>
<text x="615" y="371" text-anchor="middle" font-size="7" fill="#888">FR8d</text>
</svg>