<?xml version="1.0" encoding="UTF-8"?>
<svg xmlns="http://www.w3.org/2000/svg" viewBox="0 0 850 480" style="max-width:850px;width:100%;font-family:Segoe UI,Arial,sans-serif;background:#ffffff;border:1.5px solid #ccc;border-radius:8px;">
<defs><marker id="ah9" viewBox="0 0 10 7" refX="9" refY="3.5" markerWidth="8" markerHeight="6" orient="auto"><polygon points="0 0,10 3.5,0 7" fill="#666"/></marker></defs>
<text x="425" y="28" text-anchor="middle" font-size="14" font-weight="bold" fill="#1a5276">Level 2.7 — AI Chatbot System</text>
<line x1="172" y1="92" x2="105" y2="170" stroke="#888" stroke-width="1.5" marker-end="url(#ah9)"/>
<text x="141" y="124" text-anchor="start" font-size="8" fill="#555" font-style="italic">User Query</text>
<line x1="105" y1="170" x2="172" y2="92" stroke="#888" stroke-width="1.5" marker-end="url(#ah9)"/>
<text x="141" y="124" text-anchor="start" font-size="8" fill="#555" font-style="italic">Bot Response</text>
<line x1="180" y1="202" x2="220" y2="202" stroke="#888" stroke-width="1.5" marker-end="url(#ah9)"/>
<text x="203" y="196" text-anchor="middle" font-size="8" fill="#555" font-style="italic">Confidence &lt;70%</text>
<line x1="180" y1="202" x2="410" y2="202" stroke="#888" stroke-width="1.5" marker-end="url(#ah9)"/>
<text x="298" y="196" text-anchor="middle" font-size="8" fill="#555" font-style="italic">All Queries</text>
<line x1="672" y1="92" x2="675" y2="170" stroke="#888" stroke-width="1.5" marker-end="url(#ah9)"/>
<text x="676" y="124" text-anchor="start" font-size="8" fill="#555" font-style="italic">Review Req</text>
<line x1="105" y1="330" x2="105" y2="235" stroke="#888" stroke-width="1.5" marker-end="url(#ah9)"/>
<text x="108" y="275" text-anchor="middle" font-size="8" fill="#555" font-style="italic">Inactive Alert</text>
<line x1="485" y1="235" x2="377" y2="420" stroke="#888" stroke-width="1.5" marker-end="url(#ah9)"/>
<text x="434" y="320" text-anchor="start" font-size="8" fill="#555" font-style="italic">Stored Log</text>
<line x1="600" y1="202" x2="475" y2="437" stroke="#888" stroke-width="1.5" marker-end="url(#ah9)"/>
<text x="540" y="313" text-anchor="middle" font-size="8" fill="#555" font-style="italic">Read Logs</text>
<line x1="180" y1="362" x2="550" y2="437" stroke="#888" stroke-width="1.5" marker-end="url(#ah9)"/>
<text x="368" y="393" text-anchor="middle" font-size="8" fill="#555" font-style="italic">Activity Check</text>
<rect x="100" y="50" width="145" height="42" fill="#f8cecc" stroke="#b85450" stroke-width="2" rx="2"/>
<text x="172" y="76" text-anchor="middle" font-size="11" font-weight="bold" fill="#922b21">E1: Patient/User</text>
<rect x="600" y="50" width="145" height="42" fill="#f8cecc" stroke="#b85450" stroke-width="2" rx="2"/>
<text x="672" y="76" text-anchor="middle" font-size="11" font-weight="bold" fill="#922b21">E3: Administrator</text>
<rect x="280" y="420" width="195" height="34" fill="#d5f5e3" stroke="none"/>
<line x1="280" y1="420" x2="475" y2="420" stroke="#82b366" stroke-width="2"/>
<line x1="280" y1="454" x2="475" y2="454" stroke="#82b366" stroke-width="2"/>
<line x1="280" y1="420" x2="280" y2="454" stroke="#82b366" stroke-width="2"/>
<line x1="322" y1="420" x2="322" y2="454" stroke="#82b366" stroke-width="1.5"/>
<text x="301" y="442" text-anchor="middle" font-size="10" font-weight="bold" fill="#1e8449">D7</text>
<text x="398" y="442" text-anchor="middle" font-size="10" fill="#1e8449">Chatbot Transcripts</text>
<rect x="550" y="420" width="195" height="34" fill="#d5f5e3" stroke="none"/>
<line x1="550" y1="420" x2="745" y2="420" stroke="#82b366" stroke-width="2"/>
<line x1="550" y1="454" x2="745" y2="454" stroke="#82b366" stroke-width="2"/>
<line x1="550" y1="420" x2="550" y2="454" stroke="#82b366" stroke-width="2"/>
<line x1="592" y1="420" x2="592" y2="454" stroke="#82b366" stroke-width="1.5"/>
<text x="571" y="442" text-anchor="middle" font-size="10" font-weight="bold" fill="#1e8449">D1</text>
<text x="668" y="442" text-anchor="middle" font-size="10" fill="#1e8449">Users &amp; Credentials</text>
<rect x="30" y="170" width="150" height="65" rx="10" fill="#dae8fc" stroke="#6c8ebf" stroke-width="2"/>
<line x1="30" y1="192" x2="180" y2="192" stroke="#6c8ebf" stroke-width="1.5"/>
<text x="105" y="186" text-anchor="middle" font-size="11" font-weight="bold" fill="#1a5276">7.1</text>
<text x="105" y="206" text-anchor="middle" font-size="10" fill="#1a5276">Process Query</text>
<text x="105" y="219" text-anchor="middle" font-size="10" fill="#1a5276">(&lt;3s)</text>
<text x="105" y="231" text-anchor="middle" font-size="7" fill="#888">FR32</text>
<rect x="220" y="170" width="150" height="65" rx="10" fill="#dae8fc" stroke="#6c8ebf" stroke-width="2"/>
<line x1="220" y1="192" x2="370" y2="192" stroke="#6c8ebf" stroke-width="1.5"/>
<text x="295" y="186" text-anchor="middle" font-size="11" font-weight="bold" fill="#1a5276">7.2</text>
<text x="295" y="206" text-anchor="middle" font-size="10" fill="#1a5276">Escalate to</text>
<text x="295" y="219" text-anchor="middle" font-size="10" fill="#1a5276">Human</text>
<text x="295" y="231" text-anchor="middle" font-size="7" fill="#888">FR33</text>
<rect x="410" y="170" width="150" height="65" rx="10" fill="#dae8fc" stroke="#6c8ebf" stroke-width="2"/>
<line x1="410" y1="192" x2="560" y2="192" stroke="#6c8ebf" stroke-width="1.5"/>
<text x="485" y="186" text-anchor="middle" font-size="11" font-weight="bold" fill="#1a5276">7.3</text>
<text x="485" y="206" text-anchor="middle" font-size="10" fill="#1a5276">Store</text>
<text x="485" y="219" text-anchor="middle" font-size="10" fill="#1a5276">Transcript</text>
<text x="485" y="231" text-anchor="middle" font-size="7" fill="#888">FR34</text>
<rect x="600" y="170" width="150" height="65" rx="10" fill="#dae8fc" stroke="#6c8ebf" stroke-width="2"/>
<line x1="600" y1="192" x2="750" y2="192" stroke="#6c8ebf" stroke-width="1.5"/>
<text x="675" y="186" text-anchor="middle" font-size="11" font-weight="bold" fill="#1a5276">7.4</text>
<text x="675" y="206" text-anchor="middle" font-size="10" fill="#1a5276">Review</text>
<text x="675" y="219" text-anchor="middle" font-size="10" fill="#1a5276">Logs</text>
<text x="675" y="231" text-anchor="middle" font-size="7" fill="#888">FR35</text>
<rect x="30" y="330" width="150" height="65" rx="10" fill="#dae8fc" stroke="#6c8ebf" stroke-width="2"/>
<line x1="30" y1="352" x2="180" y2="352" stroke="#6c8ebf" stroke-width="1.5"/>
<text x="105" y="346" text-anchor="middle" font-size="11" font-weight="bold" fill="#1a5276">7.5</text>
<text x="105" y="366" text-anchor="middle" font-size="10" fill="#1a5276">Detect Inactive</text>
<text x="105" y="379" text-anchor="middle" font-size="10" fill="#1a5276">Users (7d)</text>
<text x="105" y="391" text-anchor="middle" font-size="7" fill="#888">FR36</text>
</svg>