<?xml version="1.0" encoding="UTF-8"?>
<svg xmlns="http://www.w3.org/2000/svg" viewBox="0 0 1000 520" style="max-width:1000px;width:100%;font-family:Segoe UI,Arial,sans-serif;background:#ffffff;border:1.5px solid #ccc;border-radius:8px;">
<defs><marker id="ah6" viewBox="0 0 10 7" refX="9" refY="3.5" markerWidth="8" markerHeight="6" orient="auto"><polygon points="0 0,10 3.5,0 7" fill="#666"/></marker></defs>
<text x="500" y="28" text-anchor="middle" font-size="14" font-weight="bold" fill="#1a5276">Level 2.4 — Clinical Records Management</text>
<line x1="152" y1="82" x2="105" y2="160" stroke="#888" stroke-width="1.5" marker-end="url(#ah6)"/>
<text x="131" y="114" text-anchor="start" font-size="8" fill="#555" font-style="italic">Session Notes</text>
<line x1="225" y1="61" x2="370" y2="192" stroke="#888" stroke-width="1.5" marker-end="url(#ah6)"/>
<text x="300" y="120" text-anchor="middle" font-size="8" fill="#555" font-style="italic">View Request</text>
<line x1="672" y1="82" x2="785" y2="160" stroke="#888" stroke-width="1.5" marker-end="url(#ah6)"/>
<text x="731" y="114" text-anchor="start" font-size="8" fill="#555" font-style="italic">Download Req</text>
<line x1="785" y1="160" x2="672" y2="82" stroke="#888" stroke-width="1.5" marker-end="url(#ah6)"/>
<text x="731" y="114" text-anchor="start" font-size="8" fill="#555" font-style="italic">Records File</text>
<line x1="180" y1="192" x2="200" y2="192" stroke="#888" stroke-width="1.5" marker-end="url(#ah6)"/>
<text x="193" y="186" text-anchor="middle" font-size="8" fill="#555" font-style="italic">Consent Check</text>
<line x1="350" y1="192" x2="370" y2="192" stroke="#888" stroke-width="1.5" marker-end="url(#ah6)"/>
<text x="363" y="186" text-anchor="middle" font-size="8" fill="#555" font-style="italic">Access OK</text>
<line x1="520" y1="192" x2="540" y2="192" stroke="#888" stroke-width="1.5" marker-end="url(#ah6)"/>
<text x="533" y="186" text-anchor="middle" font-size="8" fill="#555" font-style="italic">Retained</text>
<line x1="180" y1="342" x2="200" y2="342" stroke="#888" stroke-width="1.5" marker-end="url(#ah6)"/>
<text x="193" y="336" text-anchor="middle" font-size="8" fill="#555" font-style="italic">Reassigned</text>
<line x1="445" y1="225" x2="445" y2="310" stroke="#888" stroke-width="1.5" marker-end="url(#ah6)"/>
<text x="448" y="260" text-anchor="middle" font-size="8" fill="#555" font-style="italic">Access Event</text>
<line x1="690" y1="342" x2="710" y2="342" stroke="#888" stroke-width="1.5" marker-end="url(#ah6)"/>
<text x="703" y="336" text-anchor="middle" font-size="8" fill="#555" font-style="italic">Document</text>
<line x1="105" y1="225" x2="147" y2="440" stroke="#888" stroke-width="1.5" marker-end="url(#ah6)"/>
<text x="129" y="325" text-anchor="start" font-size="8" fill="#555" font-style="italic">Notes</text>
<line x1="540" y1="192" x2="245" y2="457" stroke="#888" stroke-width="1.5" marker-end="url(#ah6)"/>
<text x="395" y="318" text-anchor="middle" font-size="8" fill="#555" font-style="italic">Record Data</text>
<line x1="105" y1="375" x2="147" y2="440" stroke="#888" stroke-width="1.5" marker-end="url(#ah6)"/>
<text x="129" y="400" text-anchor="start" font-size="8" fill="#555" font-style="italic">Assignment</text>
<line x1="200" y1="342" x2="245" y2="457" stroke="#888" stroke-width="1.5" marker-end="url(#ah6)"/>
<text x="225" y="393" text-anchor="middle" font-size="8" fill="#555" font-style="italic">Record Read</text>
<line x1="540" y1="342" x2="245" y2="457" stroke="#888" stroke-width="1.5" marker-end="url(#ah6)"/>
<text x="395" y="393" text-anchor="middle" font-size="8" fill="#555" font-style="italic">Doc Upload</text>
<line x1="710" y1="342" x2="245" y2="457" stroke="#888" stroke-width="1.5" marker-end="url(#ah6)"/>
<text x="480" y="393" text-anchor="middle" font-size="8" fill="#555" font-style="italic">Validated</text>
<line x1="445" y1="375" x2="467" y2="440" stroke="#888" stroke-width="1.5" marker-end="url(#ah6)"/>
<text x="459" y="400" text-anchor="start" font-size="8" fill="#555" font-style="italic">Access Log</text>
<line x1="350" y1="192" x2="650" y2="457" stroke="#888" stroke-width="1.5" marker-end="url(#ah6)"/>
<text x="503" y="318" text-anchor="middle" font-size="8" fill="#555" font-style="italic">Consent Lookup</text>
<rect x="80" y="40" width="145" height="42" fill="#f8cecc" stroke="#b85450" stroke-width="2" rx="2"/>
<text x="152" y="66" text-anchor="middle" font-size="11" font-weight="bold" fill="#922b21">E2: Clinician</text>
<rect x="600" y="40" width="145" height="42" fill="#f8cecc" stroke="#b85450" stroke-width="2" rx="2"/>
<text x="672" y="66" text-anchor="middle" font-size="11" font-weight="bold" fill="#922b21">E1: Patient/User</text>
<rect x="50" y="440" width="195" height="34" fill="#d5f5e3" stroke="none"/>
<line x1="50" y1="440" x2="245" y2="440" stroke="#82b366" stroke-width="2"/>
<line x1="50" y1="474" x2="245" y2="474" stroke="#82b366" stroke-width="2"/>
<line x1="50" y1="440" x2="50" y2="474" stroke="#82b366" stroke-width="2"/>
<line x1="92" y1="440" x2="92" y2="474" stroke="#82b366" stroke-width="1.5"/>
<text x="71" y="462" text-anchor="middle" font-size="10" font-weight="bold" fill="#1e8449">D4</text>
<text x="168" y="462" text-anchor="middle" font-size="10" fill="#1e8449">Clinical Records</text>
<rect x="370" y="440" width="195" height="34" fill="#d5f5e3" stroke="none"/>
<line x1="370" y1="440" x2="565" y2="440" stroke="#82b366" stroke-width="2"/>
<line x1="370" y1="474" x2="565" y2="474" stroke="#82b366" stroke-width="2"/>
<line x1="370" y1="440" x2="370" y2="474" stroke="#82b366" stroke-width="2"/>
<line x1="412" y1="440" x2="412" y2="474" stroke="#82b366" stroke-width="1.5"/>
<text x="391" y="462" text-anchor="middle" font-size="10" font-weight="bold" fill="#1e8449">D12</text>
<text x="488" y="462" text-anchor="middle" font-size="10" fill="#1e8449">Audit Logs</text>
<rect x="650" y="440" width="195" height="34" fill="#d5f5e3" stroke="none"/>
<line x1="650" y1="440" x2="845" y2="440" stroke="#82b366" stroke-width="2"/>
<line x1="650" y1="474" x2="845" y2="474" stroke="#82b366" stroke-width="2"/>
<line x1="650" y1="440" x2="650" y2="474" stroke="#82b366" stroke-width="2"/>
<line x1="692" y1="440" x2="692" y2="474" stroke="#82b366" stroke-width="1.5"/>
<text x="671" y="462" text-anchor="middle" font-size="10" font-weight="bold" fill="#1e8449">D14</text>
<text x="768" y="462" text-anchor="middle" font-size="10" fill="#1e8449">Consent Records</text>
<rect x="30" y="160" width="150" height="65" rx="10" fill="#dae8fc" stroke="#6c8ebf" stroke-width="2"/>
<line x1="30" y1="182" x2="180" y2="182" stroke="#6c8ebf" stroke-width="1.5"/>
<text x="105" y="176" text-anchor="middle" font-size="11" font-weight="bold" fill="#1a5276">4.1</text>
<text x="105" y="196" text-anchor="middle" font-size="10" fill="#1a5276">Record Session</text>
<text x="105" y="209" text-anchor="middle" font-size="10" fill="#1a5276">Notes</text>
<text x="105" y="221" text-anchor="middle" font-size="7" fill="#888">FR16</text>
<rect x="200" y="160" width="150" height="65" rx="10" fill="#dae8fc" stroke="#6c8ebf" stroke-width="2"/>
<line x1="200" y1="182" x2="350" y2="182" stroke="#6c8ebf" stroke-width="1.5"/>
<text x="275" y="176" text-anchor="middle" font-size="11" font-weight="bold" fill="#1a5276">4.2</text>
<text x="275" y="196" text-anchor="middle" font-size="10" fill="#1a5276">Check</text>
<text x="275" y="209" text-anchor="middle" font-size="10" fill="#1a5276">Consent</text>
<text x="275" y="221" text-anchor="middle" font-size="7" fill="#888">FR17</text>
<rect x="370" y="160" width="150" height="65" rx="10" fill="#dae8fc" stroke="#6c8ebf" stroke-width="2"/>
<line x1="370" y1="182" x2="520" y2="182" stroke="#6c8ebf" stroke-width="1.5"/>
<text x="445" y="176" text-anchor="middle" font-size="11" font-weight="bold" fill="#1a5276">4.3</text>
<text x="445" y="196" text-anchor="middle" font-size="10" fill="#1a5276">View Patient</text>
<text x="445" y="209" text-anchor="middle" font-size="10" fill="#1a5276">History</text>
<text x="445" y="221" text-anchor="middle" font-size="7" fill="#888">FR18</text>
<rect x="540" y="160" width="150" height="65" rx="10" fill="#dae8fc" stroke="#6c8ebf" stroke-width="2"/>
<line x1="540" y1="182" x2="690" y2="182" stroke="#6c8ebf" stroke-width="1.5"/>
<text x="615" y="176" text-anchor="middle" font-size="11" font-weight="bold" fill="#1a5276">4.4</text>
<text x="615" y="196" text-anchor="middle" font-size="10" fill="#1a5276">Retain</text>
<text x="615" y="209" text-anchor="middle" font-size="10" fill="#1a5276">Records</text>
<text x="615" y="221" text-anchor="middle" font-size="7" fill="#888">FR19</text>
<rect x="710" y="160" width="150" height="65" rx="10" fill="#dae8fc" stroke="#6c8ebf" stroke-width="2"/>
<line x1="710" y1="182" x2="860" y2="182" stroke="#6c8ebf" stroke-width="1.5"/>
<text x="785" y="176" text-anchor="middle" font-size="11" font-weight="bold" fill="#1a5276">4.10</text>
<text x="785" y="196" text-anchor="middle" font-size="10" fill="#1a5276">Download</text>
<text x="785" y="209" text-anchor="middle" font-size="10" fill="#1a5276">Records</text>
<text x="785" y="221" text-anchor="middle" font-size="7" fill="#888">FR53</text>
<rect x="30" y="310" width="150" height="65" rx="10" fill="#dae8fc" stroke="#6c8ebf" stroke-width="2"/>
<line x1="30" y1="332" x2="180" y2="332" stroke="#6c8ebf" stroke-width="1.5"/>
<text x="105" y="326" text-anchor="middle" font-size="11" font-weight="bold" fill="#1a5276">4.5</text>
<text x="105" y="346" text-anchor="middle" font-size="10" fill="#1a5276">Reassign</text>
<text x="105" y="359" text-anchor="middle" font-size="10" fill="#1a5276">Patients</text>
<text x="105" y="371" text-anchor="middle" font-size="7" fill="#888">FR20</text>
<rect x="200" y="310" width="150" height="65" rx="10" fill="#dae8fc" stroke="#6c8ebf" stroke-width="2"/>
<line x1="200" y1="332" x2="350" y2="332" stroke="#6c8ebf" stroke-width="1.5"/>
<text x="275" y="326" text-anchor="middle" font-size="11" font-weight="bold" fill="#1a5276">4.6</text>
<text x="275" y="346" text-anchor="middle" font-size="10" fill="#1a5276">Request Med</text>
<text x="275" y="359" text-anchor="middle" font-size="10" fill="#1a5276">Records</text>
<text x="275" y="371" text-anchor="middle" font-size="7" fill="#888">FR21</text>
<rect x="370" y="310" width="150" height="65" rx="10" fill="#dae8fc" stroke="#6c8ebf" stroke-width="2"/>
<line x1="370" y1="332" x2="520" y2="332" stroke="#6c8ebf" stroke-width="1.5"/>
<text x="445" y="326" text-anchor="middle" font-size="11" font-weight="bold" fill="#1a5276">4.7</text>
<text x="445" y="346" text-anchor="middle" font-size="10" fill="#1a5276">Log Record</text>
<text x="445" y="359" text-anchor="middle" font-size="10" fill="#1a5276">Access</text>
<text x="445" y="371" text-anchor="middle" font-size="7" fill="#888">FR22</text>
<rect x="540" y="310" width="150" height="65" rx="10" fill="#dae8fc" stroke="#6c8ebf" stroke-width="2"/>
<line x1="540" y1="332" x2="690" y2="332" stroke="#6c8ebf" stroke-width="1.5"/>
<text x="615" y="326" text-anchor="middle" font-size="11" font-weight="bold" fill="#1a5276">4.8</text>
<text x="615" y="346" text-anchor="middle" font-size="10" fill="#1a5276">Upload Clinical</text>
<text x="615" y="359" text-anchor="middle" font-size="10" fill="#1a5276">Docs</text>
<text x="615" y="371" text-anchor="middle" font-size="7" fill="#888">FR51</text>
<rect x="710" y="310" width="150" height="65" rx="10" fill="#dae8fc" stroke="#6c8ebf" stroke-width="2"/>
<line x1="710" y1="332" x2="860" y2="332" stroke="#6c8ebf" stroke-width="1.5"/>
<text x="785" y="326" text-anchor="middle" font-size="11" font-weight="bold" fill="#1a5276">4.9</text>
<text x="785" y="346" text-anchor="middle" font-size="10" fill="#1a5276">Validate</text>
<text x="785" y="359" text-anchor="middle" font-size="10" fill="#1a5276">Format</text>
<text x="785" y="371" text-anchor="middle" font-size="7" fill="#888">FR52</text>
</svg>