<?xml version="1.0" encoding="UTF-8"?>
<svg xmlns="http://www.w3.org/2000/svg" viewBox="0 0 700 420" style="max-width:700px;width:100%;font-family:Segoe UI,Arial,sans-serif;background:#ffffff;border:1.5px solid #ccc;border-radius:8px;">
<defs><marker id="ah16" viewBox="0 0 10 7" refX="9" refY="3.5" markerWidth="8" markerHeight="6" orient="auto"><polygon points="0 0,10 3.5,0 7" fill="#666"/></marker></defs>
<text x="350" y="28" text-anchor="middle" font-size="14" font-weight="bold" fill="#1a5276">Level 2.14 — Privacy &amp; Compliance</text>
<line x1="220" y1="71" x2="180" y2="202" stroke="#888" stroke-width="1.5" marker-end="url(#ah16)"/>
<text x="203" y="130" text-anchor="middle" font-size="8" fill="#555" font-style="italic">Revoke Request</text>
<line x1="180" y1="202" x2="240" y2="202" stroke="#888" stroke-width="1.5" marker-end="url(#ah16)"/>
<text x="213" y="196" text-anchor="middle" font-size="8" fill="#555" font-style="italic">Revocation Event</text>
<line x1="180" y1="202" x2="450" y2="202" stroke="#888" stroke-width="1.5" marker-end="url(#ah16)"/>
<text x="318" y="196" text-anchor="middle" font-size="8" fill="#555" font-style="italic">Change Data</text>
<line x1="105" y1="235" x2="127" y2="340" stroke="#888" stroke-width="1.5" marker-end="url(#ah16)"/>
<text x="119" y="280" text-anchor="start" font-size="8" fill="#555" font-style="italic">Consent Update</text>
<line x1="315" y1="235" x2="337" y2="340" stroke="#888" stroke-width="1.5" marker-end="url(#ah16)"/>
<text x="329" y="280" text-anchor="start" font-size="8" fill="#555" font-style="italic">Access Restriction</text>
<line x1="525" y1="235" x2="557" y2="340" stroke="#888" stroke-width="1.5" marker-end="url(#ah16)"/>
<text x="544" y="280" text-anchor="start" font-size="8" fill="#555" font-style="italic">Consent Audit</text>
<rect x="220" y="50" width="145" height="42" fill="#f8cecc" stroke="#b85450" stroke-width="2" rx="2"/>
<text x="292" y="76" text-anchor="middle" font-size="11" font-weight="bold" fill="#922b21">E1: Patient / User</text>
<rect x="30" y="340" width="195" height="34" fill="#d5f5e3" stroke="none"/>
<line x1="30" y1="340" x2="225" y2="340" stroke="#82b366" stroke-width="2"/>
<line x1="30" y1="374" x2="225" y2="374" stroke="#82b366" stroke-width="2"/>
<line x1="30" y1="340" x2="30" y2="374" stroke="#82b366" stroke-width="2"/>
<line x1="72" y1="340" x2="72" y2="374" stroke="#82b366" stroke-width="1.5"/>
<text x="51" y="362" text-anchor="middle" font-size="10" font-weight="bold" fill="#1e8449">D14</text>
<text x="148" y="362" text-anchor="middle" font-size="10" fill="#1e8449">Consent Records</text>
<rect x="240" y="340" width="195" height="34" fill="#d5f5e3" stroke="none"/>
<line x1="240" y1="340" x2="435" y2="340" stroke="#82b366" stroke-width="2"/>
<line x1="240" y1="374" x2="435" y2="374" stroke="#82b366" stroke-width="2"/>
<line x1="240" y1="340" x2="240" y2="374" stroke="#82b366" stroke-width="2"/>
<line x1="282" y1="340" x2="282" y2="374" stroke="#82b366" stroke-width="1.5"/>
<text x="261" y="362" text-anchor="middle" font-size="10" font-weight="bold" fill="#1e8449">D1</text>
<text x="358" y="362" text-anchor="middle" font-size="10" fill="#1e8449">Users &amp; Credentials</text>
<rect x="460" y="340" width="195" height="34" fill="#d5f5e3" stroke="none"/>
<line x1="460" y1="340" x2="655" y2="340" stroke="#82b366" stroke-width="2"/>
<line x1="460" y1="374" x2="655" y2="374" stroke="#82b366" stroke-width="2"/>
<line x1="460" y1="340" x2="460" y2="374" stroke="#82b366" stroke-width="2"/>
<line x1="502" y1="340" x2="502" y2="374" stroke="#82b366" stroke-width="1.5"/>
<text x="481" y="362" text-anchor="middle" font-size="10" font-weight="bold" fill="#1e8449">D12</text>
<text x="578" y="362" text-anchor="middle" font-size="10" fill="#1e8449">Audit Logs</text>
<rect x="30" y="170" width="150" height="65" rx="10" fill="#dae8fc" stroke="#6c8ebf" stroke-width="2"/>
<line x1="30" y1="192" x2="180" y2="192" stroke="#6c8ebf" stroke-width="1.5"/>
<text x="105" y="186" text-anchor="middle" font-size="11" font-weight="bold" fill="#1a5276">14.1</text>
<text x="105" y="206" text-anchor="middle" font-size="10" fill="#1a5276">Revoke Consent</text>
<text x="105" y="219" text-anchor="middle" font-size="10" fill="#1a5276">Instantly</text>
<text x="105" y="231" text-anchor="middle" font-size="7" fill="#888">FR54</text>
<rect x="240" y="170" width="150" height="65" rx="10" fill="#dae8fc" stroke="#6c8ebf" stroke-width="2"/>
<line x1="240" y1="192" x2="390" y2="192" stroke="#6c8ebf" stroke-width="1.5"/>
<text x="315" y="186" text-anchor="middle" font-size="11" font-weight="bold" fill="#1a5276">14.2</text>
<text x="315" y="206" text-anchor="middle" font-size="10" fill="#1a5276">Restrict Access</text>
<text x="315" y="219" text-anchor="middle" font-size="10" fill="#1a5276">on Revocation</text>
<text x="315" y="231" text-anchor="middle" font-size="7" fill="#888">FR55</text>
<rect x="450" y="170" width="150" height="65" rx="10" fill="#dae8fc" stroke="#6c8ebf" stroke-width="2"/>
<line x1="450" y1="192" x2="600" y2="192" stroke="#6c8ebf" stroke-width="1.5"/>
<text x="525" y="186" text-anchor="middle" font-size="11" font-weight="bold" fill="#1a5276">14.3</text>
<text x="525" y="206" text-anchor="middle" font-size="10" fill="#1a5276">Log Consent</text>
<text x="525" y="219" text-anchor="middle" font-size="10" fill="#1a5276">Changes</text>
<text x="525" y="231" text-anchor="middle" font-size="7" fill="#888">FR56</text>
</svg>