<?xml version="1.0" encoding="UTF-8"?>
<svg xmlns="http://www.w3.org/2000/svg" viewBox="0 0 900 500" style="max-width:900px;width:100%;font-family:Segoe UI,Arial,sans-serif;background:#ffffff;border:1.5px solid #ccc;border-radius:8px;">
<defs><marker id="ah15" viewBox="0 0 10 7" refX="9" refY="3.5" markerWidth="8" markerHeight="6" orient="auto"><polygon points="0 0,10 3.5,0 7" fill="#666"/></marker></defs>
<text x="450" y="28" text-anchor="middle" font-size="14" font-weight="bold" fill="#1a5276">Level 2.13 — System Maintenance &amp; Backup</text>
<line x1="350" y1="71" x2="350" y2="212" stroke="#888" stroke-width="1.5" marker-end="url(#ah15)"/>
<text x="353" y="135" text-anchor="middle" font-size="8" fill="#555" font-style="italic">Restore Cmd</text>
<line x1="600" y1="212" x2="495" y2="71" stroke="#888" stroke-width="1.5" marker-end="url(#ah15)"/>
<text x="550" y="135" text-anchor="middle" font-size="8" fill="#555" font-style="italic">Critical Alert</text>
<line x1="560" y1="212" x2="600" y2="212" stroke="#888" stroke-width="1.5" marker-end="url(#ah15)"/>
<text x="583" y="206" text-anchor="middle" font-size="8" fill="#555" font-style="italic">Critical Error</text>
<line x1="105" y1="245" x2="127" y2="430" stroke="#888" stroke-width="1.5" marker-end="url(#ah15)"/>
<text x="119" y="330" text-anchor="start" font-size="8" fill="#555" font-style="italic">Backup File</text>
<line x1="275" y1="245" x2="127" y2="430" stroke="#888" stroke-width="1.5" marker-end="url(#ah15)"/>
<text x="204" y="330" text-anchor="start" font-size="8" fill="#555" font-style="italic">Restore Point</text>
<line x1="410" y1="362" x2="225" y2="447" stroke="#888" stroke-width="1.5" marker-end="url(#ah15)"/>
<text x="320" y="398" text-anchor="middle" font-size="8" fill="#555" font-style="italic">Maint Log</text>
<line x1="485" y1="245" x2="427" y2="430" stroke="#888" stroke-width="1.5" marker-end="url(#ah15)"/>
<text x="459" y="330" text-anchor="start" font-size="8" fill="#555" font-style="italic">Error Log</text>
<line x1="350" y1="362" x2="330" y2="447" stroke="#888" stroke-width="1.5" marker-end="url(#ah15)"/>
<text x="343" y="398" text-anchor="middle" font-size="8" fill="#555" font-style="italic">Reject Log</text>
<line x1="675" y1="245" x2="697" y2="430" stroke="#888" stroke-width="1.5" marker-end="url(#ah15)"/>
<text x="689" y="330" text-anchor="start" font-size="8" fill="#555" font-style="italic">Alert Notif</text>
<rect x="350" y="50" width="145" height="42" fill="#f8cecc" stroke="#b85450" stroke-width="2" rx="2"/>
<text x="422" y="76" text-anchor="middle" font-size="11" font-weight="bold" fill="#922b21">E3: Administrator</text>
<rect x="30" y="430" width="195" height="34" fill="#d5f5e3" stroke="none"/>
<line x1="30" y1="430" x2="225" y2="430" stroke="#82b366" stroke-width="2"/>
<line x1="30" y1="464" x2="225" y2="464" stroke="#82b366" stroke-width="2"/>
<line x1="30" y1="430" x2="30" y2="464" stroke="#82b366" stroke-width="2"/>
<line x1="72" y1="430" x2="72" y2="464" stroke="#82b366" stroke-width="1.5"/>
<text x="51" y="452" text-anchor="middle" font-size="10" font-weight="bold" fill="#1e8449">D13</text>
<text x="148" y="452" text-anchor="middle" font-size="10" fill="#1e8449">System Backups</text>
<rect x="330" y="430" width="195" height="34" fill="#d5f5e3" stroke="none"/>
<line x1="330" y1="430" x2="525" y2="430" stroke="#82b366" stroke-width="2"/>
<line x1="330" y1="464" x2="525" y2="464" stroke="#82b366" stroke-width="2"/>
<line x1="330" y1="430" x2="330" y2="464" stroke="#82b366" stroke-width="2"/>
<line x1="372" y1="430" x2="372" y2="464" stroke="#82b366" stroke-width="1.5"/>
<text x="351" y="452" text-anchor="middle" font-size="10" font-weight="bold" fill="#1e8449">D12</text>
<text x="448" y="452" text-anchor="middle" font-size="10" fill="#1e8449">Audit Logs</text>
<rect x="600" y="430" width="195" height="34" fill="#d5f5e3" stroke="none"/>
<line x1="600" y1="430" x2="795" y2="430" stroke="#82b366" stroke-width="2"/>
<line x1="600" y1="464" x2="795" y2="464" stroke="#82b366" stroke-width="2"/>
<line x1="600" y1="430" x2="600" y2="464" stroke="#82b366" stroke-width="2"/>
<line x1="642" y1="430" x2="642" y2="464" stroke="#82b366" stroke-width="1.5"/>
<text x="621" y="452" text-anchor="middle" font-size="10" font-weight="bold" fill="#1e8449">D9</text>
<text x="718" y="452" text-anchor="middle" font-size="10" fill="#1e8449">Notification Queue</text>
<rect x="30" y="180" width="150" height="65" rx="10" fill="#dae8fc" stroke="#6c8ebf" stroke-width="2"/>
<line x1="30" y1="202" x2="180" y2="202" stroke="#6c8ebf" stroke-width="1.5"/>
<text x="105" y="196" text-anchor="middle" font-size="11" font-weight="bold" fill="#1a5276">13.1</text>
<text x="105" y="216" text-anchor="middle" font-size="10" fill="#1a5276">Daily Backup</text>
<text x="105" y="229" text-anchor="middle" font-size="10" fill="#1a5276">(Midnight)</text>
<text x="105" y="241" text-anchor="middle" font-size="7" fill="#888">FR45</text>
<rect x="200" y="180" width="150" height="65" rx="10" fill="#dae8fc" stroke="#6c8ebf" stroke-width="2"/>
<line x1="200" y1="202" x2="350" y2="202" stroke="#6c8ebf" stroke-width="1.5"/>
<text x="275" y="196" text-anchor="middle" font-size="11" font-weight="bold" fill="#1a5276">13.2</text>
<text x="275" y="216" text-anchor="middle" font-size="10" fill="#1a5276">Restore from</text>
<text x="275" y="229" text-anchor="middle" font-size="10" fill="#1a5276">Backup</text>
<text x="275" y="241" text-anchor="middle" font-size="7" fill="#888">FR46</text>
<rect x="410" y="180" width="150" height="65" rx="10" fill="#dae8fc" stroke="#6c8ebf" stroke-width="2"/>
<line x1="410" y1="202" x2="560" y2="202" stroke="#6c8ebf" stroke-width="1.5"/>
<text x="485" y="196" text-anchor="middle" font-size="11" font-weight="bold" fill="#1a5276">13.3</text>
<text x="485" y="216" text-anchor="middle" font-size="10" fill="#1a5276">Log System</text>
<text x="485" y="229" text-anchor="middle" font-size="10" fill="#1a5276">Errors</text>
<text x="485" y="241" text-anchor="middle" font-size="7" fill="#888">FR47</text>
<rect x="600" y="180" width="150" height="65" rx="10" fill="#dae8fc" stroke="#6c8ebf" stroke-width="2"/>
<line x1="600" y1="202" x2="750" y2="202" stroke="#6c8ebf" stroke-width="1.5"/>
<text x="675" y="196" text-anchor="middle" font-size="11" font-weight="bold" fill="#1a5276">13.4</text>
<text x="675" y="216" text-anchor="middle" font-size="10" fill="#1a5276">Admin Critical</text>
<text x="675" y="229" text-anchor="middle" font-size="10" fill="#1a5276">Alerts</text>
<text x="675" y="241" text-anchor="middle" font-size="7" fill="#888">FR48</text>
<rect x="200" y="330" width="150" height="65" rx="10" fill="#dae8fc" stroke="#6c8ebf" stroke-width="2"/>
<line x1="200" y1="352" x2="350" y2="352" stroke="#6c8ebf" stroke-width="1.5"/>
<text x="275" y="346" text-anchor="middle" font-size="11" font-weight="bold" fill="#1a5276">13.5</text>
<text x="275" y="366" text-anchor="middle" font-size="10" fill="#1a5276">File Upload</text>
<text x="275" y="379" text-anchor="middle" font-size="10" fill="#1a5276">Limit (5MB)</text>
<text x="275" y="391" text-anchor="middle" font-size="7" fill="#888">FR73</text>
<rect x="410" y="330" width="150" height="65" rx="10" fill="#dae8fc" stroke="#6c8ebf" stroke-width="2"/>
<line x1="410" y1="352" x2="560" y2="352" stroke="#6c8ebf" stroke-width="1.5"/>
<text x="485" y="346" text-anchor="middle" font-size="11" font-weight="bold" fill="#1a5276">13.6</text>
<text x="485" y="366" text-anchor="middle" font-size="10" fill="#1a5276">Monthly</text>
<text x="485" y="379" text-anchor="middle" font-size="10" fill="#1a5276">Maintenance</text>
<text x="485" y="391" text-anchor="middle" font-size="7" fill="#888">FR75</text>
</svg>