<?xml version="1.0" encoding="UTF-8"?>
<svg xmlns="http://www.w3.org/2000/svg" viewBox="0 0 650 400" style="max-width:650px;width:100%;font-family:Segoe UI,Arial,sans-serif;background:#ffffff;border:1.5px solid #ccc;border-radius:8px;">
<defs><marker id="ah17" viewBox="0 0 10 7" refX="9" refY="3.5" markerWidth="8" markerHeight="6" orient="auto"><polygon points="0 0,10 3.5,0 7" fill="#666"/></marker></defs>
<text x="325" y="28" text-anchor="middle" font-size="14" font-weight="bold" fill="#1a5276">Level 2.15 — UI &amp; Localization</text>
<line x1="292" y1="92" x2="175" y2="170" stroke="#888" stroke-width="1.5" marker-end="url(#ah17)"/>
<text x="236" y="124" text-anchor="start" font-size="8" fill="#555" font-style="italic">Language Pref</text>
<line x1="365" y1="71" x2="350" y2="202" stroke="#888" stroke-width="1.5" marker-end="url(#ah17)"/>
<text x="360" y="130" text-anchor="middle" font-size="8" fill="#555" font-style="italic">Dashboard Req</text>
<line x1="250" y1="202" x2="350" y2="202" stroke="#888" stroke-width="1.5" marker-end="url(#ah17)"/>
<text x="303" y="196" text-anchor="middle" font-size="8" fill="#555" font-style="italic">Locale Config</text>
<line x1="350" y1="202" x2="365" y2="71" stroke="#888" stroke-width="1.5" marker-end="url(#ah17)"/>
<text x="360" y="130" text-anchor="middle" font-size="8" fill="#555" font-style="italic">Dashboard Data</text>
<line x1="175" y1="235" x2="177" y2="330" stroke="#888" stroke-width="1.5" marker-end="url(#ah17)"/>
<text x="179" y="275" text-anchor="start" font-size="8" fill="#555" font-style="italic">Lang Pref</text>
<line x1="425" y1="235" x2="447" y2="330" stroke="#888" stroke-width="1.5" marker-end="url(#ah17)"/>
<text x="439" y="275" text-anchor="start" font-size="8" fill="#555" font-style="italic">Session State</text>
<rect x="220" y="50" width="145" height="42" fill="#f8cecc" stroke="#b85450" stroke-width="2" rx="2"/>
<text x="292" y="76" text-anchor="middle" font-size="11" font-weight="bold" fill="#922b21">E1: Patient / User</text>
<rect x="80" y="330" width="195" height="34" fill="#d5f5e3" stroke="none"/>
<line x1="80" y1="330" x2="275" y2="330" stroke="#82b366" stroke-width="2"/>
<line x1="80" y1="364" x2="275" y2="364" stroke="#82b366" stroke-width="2"/>
<line x1="80" y1="330" x2="80" y2="364" stroke="#82b366" stroke-width="2"/>
<line x1="122" y1="330" x2="122" y2="364" stroke="#82b366" stroke-width="1.5"/>
<text x="101" y="352" text-anchor="middle" font-size="10" font-weight="bold" fill="#1e8449">D2</text>
<text x="198" y="352" text-anchor="middle" font-size="10" fill="#1e8449">User Profiles</text>
<rect x="350" y="330" width="195" height="34" fill="#d5f5e3" stroke="none"/>
<line x1="350" y1="330" x2="545" y2="330" stroke="#82b366" stroke-width="2"/>
<line x1="350" y1="364" x2="545" y2="364" stroke="#82b366" stroke-width="2"/>
<line x1="350" y1="330" x2="350" y2="364" stroke="#82b366" stroke-width="2"/>
<line x1="392" y1="330" x2="392" y2="364" stroke="#82b366" stroke-width="1.5"/>
<text x="371" y="352" text-anchor="middle" font-size="10" font-weight="bold" fill="#1e8449">D15</text>
<text x="468" y="352" text-anchor="middle" font-size="10" fill="#1e8449">Session Data</text>
<rect x="100" y="170" width="150" height="65" rx="10" fill="#dae8fc" stroke="#6c8ebf" stroke-width="2"/>
<line x1="100" y1="192" x2="250" y2="192" stroke="#6c8ebf" stroke-width="1.5"/>
<text x="175" y="186" text-anchor="middle" font-size="11" font-weight="bold" fill="#1a5276">15.1</text>
<text x="175" y="206" text-anchor="middle" font-size="10" fill="#1a5276">Select Interface</text>
<text x="175" y="219" text-anchor="middle" font-size="10" fill="#1a5276">Language</text>
<text x="175" y="231" text-anchor="middle" font-size="7" fill="#888">FR49</text>
<rect x="350" y="170" width="150" height="65" rx="10" fill="#dae8fc" stroke="#6c8ebf" stroke-width="2"/>
<line x1="350" y1="192" x2="500" y2="192" stroke="#6c8ebf" stroke-width="1.5"/>
<text x="425" y="186" text-anchor="middle" font-size="11" font-weight="bold" fill="#1a5276">15.2</text>
<text x="425" y="206" text-anchor="middle" font-size="10" fill="#1a5276">Load Dashboard</text>
<text x="425" y="219" text-anchor="middle" font-size="10" fill="#1a5276">(&lt;3 seconds)</text>
<text x="425" y="231" text-anchor="middle" font-size="7" fill="#888">FR50</text>
</svg>