<?xml version="1.0" encoding="UTF-8"?>
<svg xmlns="http://www.w3.org/2000/svg" viewBox="0 0 900 500" style="max-width:900px;width:100%;font-family:Segoe UI,Arial,sans-serif;background:#ffffff;border:1.5px solid #ccc;border-radius:8px;">
<defs><marker id="ah14" viewBox="0 0 10 7" refX="9" refY="3.5" markerWidth="8" markerHeight="6" orient="auto"><polygon points="0 0,10 3.5,0 7" fill="#666"/></marker></defs>
<text x="450" y="28" text-anchor="middle" font-size="14" font-weight="bold" fill="#1a5276">Level 2.12 — Administration &amp; Access Control</text>
<line x1="350" y1="71" x2="180" y2="212" stroke="#888" stroke-width="1.5" marker-end="url(#ah14)"/>
<text x="268" y="135" text-anchor="middle" font-size="8" fill="#555" font-style="italic">Deactivate Cmd</text>
<line x1="422" y1="92" x2="275" y2="330" stroke="#888" stroke-width="1.5" marker-end="url(#ah14)"/>
<text x="351" y="204" text-anchor="start" font-size="8" fill="#555" font-style="italic">Role Assignment</text>
<line x1="520" y1="212" x2="540" y2="362" stroke="#888" stroke-width="1.5" marker-end="url(#ah14)"/>
<text x="533" y="281" text-anchor="middle" font-size="8" fill="#555" font-style="italic">Validated Req</text>
<line x1="105" y1="245" x2="127" y2="430" stroke="#888" stroke-width="1.5" marker-end="url(#ah14)"/>
<text x="119" y="330" text-anchor="start" font-size="8" fill="#555" font-style="italic">Account Status</text>
<line x1="200" y1="362" x2="225" y2="447" stroke="#888" stroke-width="1.5" marker-end="url(#ah14)"/>
<text x="215" y="398" text-anchor="middle" font-size="8" fill="#555" font-style="italic">Role Data</text>
<line x1="615" y1="245" x2="447" y2="430" stroke="#888" stroke-width="1.5" marker-end="url(#ah14)"/>
<text x="534" y="330" text-anchor="start" font-size="8" fill="#555" font-style="italic">Audit Trail</text>
<line x1="540" y1="362" x2="545" y2="447" stroke="#888" stroke-width="1.5" marker-end="url(#ah14)"/>
<text x="545" y="398" text-anchor="middle" font-size="8" fill="#555" font-style="italic">Denied Log</text>
<line x1="350" y1="212" x2="620" y2="447" stroke="#888" stroke-width="1.5" marker-end="url(#ah14)"/>
<text x="488" y="323" text-anchor="middle" font-size="8" fill="#555" font-style="italic">Session Invalid</text>
<rect x="350" y="50" width="145" height="42" fill="#f8cecc" stroke="#b85450" stroke-width="2" rx="2"/>
<text x="422" y="76" text-anchor="middle" font-size="11" font-weight="bold" fill="#922b21">E3: Administrator</text>
<rect x="30" y="430" width="195" height="34" fill="#d5f5e3" stroke="none"/>
<line x1="30" y1="430" x2="225" y2="430" stroke="#82b366" stroke-width="2"/>
<line x1="30" y1="464" x2="225" y2="464" stroke="#82b366" stroke-width="2"/>
<line x1="30" y1="430" x2="30" y2="464" stroke="#82b366" stroke-width="2"/>
<line x1="72" y1="430" x2="72" y2="464" stroke="#82b366" stroke-width="1.5"/>
<text x="51" y="452" text-anchor="middle" font-size="10" font-weight="bold" fill="#1e8449">D1</text>
<text x="148" y="452" text-anchor="middle" font-size="10" fill="#1e8449">Users &amp; Credentials</text>
<rect x="350" y="430" width="195" height="34" fill="#d5f5e3" stroke="none"/>
<line x1="350" y1="430" x2="545" y2="430" stroke="#82b366" stroke-width="2"/>
<line x1="350" y1="464" x2="545" y2="464" stroke="#82b366" stroke-width="2"/>
<line x1="350" y1="430" x2="350" y2="464" stroke="#82b366" stroke-width="2"/>
<line x1="392" y1="430" x2="392" y2="464" stroke="#82b366" stroke-width="1.5"/>
<text x="371" y="452" text-anchor="middle" font-size="10" font-weight="bold" fill="#1e8449">D12</text>
<text x="468" y="452" text-anchor="middle" font-size="10" fill="#1e8449">Audit Logs</text>
<rect x="620" y="430" width="195" height="34" fill="#d5f5e3" stroke="none"/>
<line x1="620" y1="430" x2="815" y2="430" stroke="#82b366" stroke-width="2"/>
<line x1="620" y1="464" x2="815" y2="464" stroke="#82b366" stroke-width="2"/>
<line x1="620" y1="430" x2="620" y2="464" stroke="#82b366" stroke-width="2"/>
<line x1="662" y1="430" x2="662" y2="464" stroke="#82b366" stroke-width="1.5"/>
<text x="641" y="452" text-anchor="middle" font-size="10" font-weight="bold" fill="#1e8449">D15</text>
<text x="738" y="452" text-anchor="middle" font-size="10" fill="#1e8449">Session Data</text>
<rect x="30" y="180" width="150" height="65" rx="10" fill="#dae8fc" stroke="#6c8ebf" stroke-width="2"/>
<line x1="30" y1="202" x2="180" y2="202" stroke="#6c8ebf" stroke-width="1.5"/>
<text x="105" y="196" text-anchor="middle" font-size="11" font-weight="bold" fill="#1a5276">12.1</text>
<text x="105" y="216" text-anchor="middle" font-size="10" fill="#1a5276">Deactivate</text>
<text x="105" y="229" text-anchor="middle" font-size="10" fill="#1a5276">Account</text>
<text x="105" y="241" text-anchor="middle" font-size="7" fill="#888">FR60</text>
<rect x="200" y="180" width="150" height="65" rx="10" fill="#dae8fc" stroke="#6c8ebf" stroke-width="2"/>
<line x1="200" y1="202" x2="350" y2="202" stroke="#6c8ebf" stroke-width="1.5"/>
<text x="275" y="196" text-anchor="middle" font-size="11" font-weight="bold" fill="#1a5276">12.2</text>
<text x="275" y="216" text-anchor="middle" font-size="10" fill="#1a5276">Auto-Logout</text>
<text x="275" y="229" text-anchor="middle" font-size="10" fill="#1a5276">(15 min)</text>
<text x="275" y="241" text-anchor="middle" font-size="7" fill="#888">FR62</text>
<rect x="370" y="180" width="150" height="65" rx="10" fill="#dae8fc" stroke="#6c8ebf" stroke-width="2"/>
<line x1="370" y1="202" x2="520" y2="202" stroke="#6c8ebf" stroke-width="1.5"/>
<text x="445" y="196" text-anchor="middle" font-size="11" font-weight="bold" fill="#1a5276">12.3</text>
<text x="445" y="216" text-anchor="middle" font-size="10" fill="#1a5276">Input</text>
<text x="445" y="229" text-anchor="middle" font-size="10" fill="#1a5276">Validation</text>
<text x="445" y="241" text-anchor="middle" font-size="7" fill="#888">FR63</text>
<rect x="540" y="180" width="150" height="65" rx="10" fill="#dae8fc" stroke="#6c8ebf" stroke-width="2"/>
<line x1="540" y1="202" x2="690" y2="202" stroke="#6c8ebf" stroke-width="1.5"/>
<text x="615" y="196" text-anchor="middle" font-size="11" font-weight="bold" fill="#1a5276">12.4</text>
<text x="615" y="216" text-anchor="middle" font-size="10" fill="#1a5276">Generate</text>
<text x="615" y="229" text-anchor="middle" font-size="10" fill="#1a5276">Audit Trails</text>
<text x="615" y="241" text-anchor="middle" font-size="7" fill="#888">FR64</text>
<rect x="200" y="330" width="150" height="65" rx="10" fill="#dae8fc" stroke="#6c8ebf" stroke-width="2"/>
<line x1="200" y1="352" x2="350" y2="352" stroke="#6c8ebf" stroke-width="1.5"/>
<text x="275" y="346" text-anchor="middle" font-size="11" font-weight="bold" fill="#1a5276">12.5</text>
<text x="275" y="366" text-anchor="middle" font-size="10" fill="#1a5276">Assign RBAC</text>
<text x="275" y="379" text-anchor="middle" font-size="10" fill="#1a5276">Roles</text>
<text x="275" y="391" text-anchor="middle" font-size="7" fill="#888">FR65</text>
<rect x="540" y="330" width="150" height="65" rx="10" fill="#dae8fc" stroke="#6c8ebf" stroke-width="2"/>
<line x1="540" y1="352" x2="690" y2="352" stroke="#6c8ebf" stroke-width="1.5"/>
<text x="615" y="346" text-anchor="middle" font-size="11" font-weight="bold" fill="#1a5276">12.6</text>
<text x="615" y="366" text-anchor="middle" font-size="10" fill="#1a5276">Deny Unauth</text>
<text x="615" y="379" text-anchor="middle" font-size="10" fill="#1a5276">API Requests</text>
<text x="615" y="391" text-anchor="middle" font-size="7" fill="#888">FR66</text>
</svg>