<?xml version="1.0" encoding="UTF-8"?>
<svg xmlns="http://www.w3.org/2000/svg" viewBox="0 0 1200 1100" style="max-width:1200px;width:100%;font-family:Segoe UI,Arial,sans-serif;background:#ffffff;border:1.5px solid #ccc;border-radius:8px;">
<defs><marker id="cls8" viewBox="0 0 10 7" refX="9" refY="3.5" markerWidth="8" markerHeight="6" orient="auto"><polygon points="0 0,10 3.5,0 7" fill="#444"/></marker></defs>
<text x="600" y="25" text-anchor="middle" font-size="16" font-weight="bold" fill="#1a5276">UML Class Diagram — Mental Health Support Platform</text>
<rect x="30" y="50" width="220" height="196" fill="#fff" stroke="#2980b9" stroke-width="2" rx="3"/>
<rect x="30" y="50" width="220" height="26" fill="#2980b9" rx="3"/>
<rect x="30" y="63" width="220" height="13" fill="#2980b9"/>
<text x="140" y="68" text-anchor="middle" font-size="12" font-weight="bold" fill="#fff">User</text>
<text x="36" y="90" font-size="9" fill="#333">+user_id: UUID</text>
<text x="36" y="104" font-size="9" fill="#333">+email: string</text>
<text x="36" y="118" font-size="9" fill="#333">+password_hash: string</text>
<text x="36" y="132" font-size="9" fill="#333">+role: Role</text>
<text x="36" y="146" font-size="9" fill="#333">+verified: boolean</text>
<text x="36" y="160" font-size="9" fill="#333">+locked: boolean</text>
<line x1="30" y1="168" x2="250" y2="168" stroke="#2980b9" stroke-width="1"/>
<text x="36" y="184" font-size="9" fill="#1a5276">+register(data): User</text>
<text x="36" y="198" font-size="9" fill="#1a5276">+login(email,pwd): JWT</text>
<text x="36" y="212" font-size="9" fill="#1a5276">+verifyOTP(code): boolean</text>
<text x="36" y="226" font-size="9" fill="#1a5276">+resetPassword(): void</text>
<text x="36" y="240" font-size="9" fill="#1a5276">+deleteAccount(): void</text>
<rect x="290" y="50" width="200" height="140" fill="#fff" stroke="#2980b9" stroke-width="2" rx="3"/>
<rect x="290" y="50" width="200" height="26" fill="#2980b9" rx="3"/>
<rect x="290" y="63" width="200" height="13" fill="#2980b9"/>
<text x="390" y="68" text-anchor="middle" font-size="12" font-weight="bold" fill="#fff">Profile</text>
<text x="296" y="90" font-size="9" fill="#333">+profile_id: UUID</text>
<text x="296" y="104" font-size="9" fill="#333">+user_id: UUID</text>
<text x="296" y="118" font-size="9" fill="#333">+display_name: string</text>
<text x="296" y="132" font-size="9" fill="#333">+avatar_url: string</text>
<text x="296" y="146" font-size="9" fill="#333">+language: string</text>
<line x1="290" y1="154" x2="490" y2="154" stroke="#2980b9" stroke-width="1"/>
<text x="296" y="170" font-size="9" fill="#1a5276">+updateProfile(data): Profile</text>
<text x="296" y="184" font-size="9" fill="#1a5276">+uploadAvatar(file): string</text>
<rect x="530" y="50" width="220" height="196" fill="#fff" stroke="#2980b9" stroke-width="2" rx="3"/>
<rect x="530" y="50" width="220" height="26" fill="#2980b9" rx="3"/>
<rect x="530" y="63" width="220" height="13" fill="#2980b9"/>
<text x="640" y="68" text-anchor="middle" font-size="12" font-weight="bold" fill="#fff">Appointment</text>
<text x="536" y="90" font-size="9" fill="#333">+appt_id: UUID</text>
<text x="536" y="104" font-size="9" fill="#333">+patient_id: UUID</text>
<text x="536" y="118" font-size="9" fill="#333">+clinician_id: UUID</text>
<text x="536" y="132" font-size="9" fill="#333">+date_time: DateTime</text>
<text x="536" y="146" font-size="9" fill="#333">+status: ApptStatus</text>
<line x1="530" y1="154" x2="750" y2="154" stroke="#2980b9" stroke-width="1"/>
<text x="536" y="170" font-size="9" fill="#1a5276">+schedule(data): Appt</text>
<text x="536" y="184" font-size="9" fill="#1a5276">+checkAvailability(): Slot[]</text>
<text x="536" y="198" font-size="9" fill="#1a5276">+reschedule(dt): Appt</text>
<text x="536" y="212" font-size="9" fill="#1a5276">+approve(): Appt</text>
<text x="536" y="226" font-size="9" fill="#1a5276">+autoCancel(): void</text>
<text x="536" y="240" font-size="9" fill="#1a5276">+markMissed(): void</text>
<rect x="790" y="50" width="220" height="182" fill="#fff" stroke="#2980b9" stroke-width="2" rx="3"/>
<rect x="790" y="50" width="220" height="26" fill="#2980b9" rx="3"/>
<rect x="790" y="63" width="220" height="13" fill="#2980b9"/>
<text x="900" y="68" text-anchor="middle" font-size="12" font-weight="bold" fill="#fff">ClinicalRecord</text>
<text x="796" y="90" font-size="9" fill="#333">+record_id: UUID</text>
<text x="796" y="104" font-size="9" fill="#333">+patient_id: UUID</text>
<text x="796" y="118" font-size="9" fill="#333">+clinician_id: UUID</text>
<text x="796" y="132" font-size="9" fill="#333">+session_notes: string</text>
<text x="796" y="146" font-size="9" fill="#333">+retention_date: Date</text>
<line x1="790" y1="154" x2="1010" y2="154" stroke="#2980b9" stroke-width="1"/>
<text x="796" y="170" font-size="9" fill="#1a5276">+createNote(data): Record</text>
<text x="796" y="184" font-size="9" fill="#1a5276">+checkConsent(pid): boolean</text>
<text x="796" y="198" font-size="9" fill="#1a5276">+viewHistory(pid): Record[]</text>
<text x="796" y="212" font-size="9" fill="#1a5276">+uploadDoc(file): Doc</text>
<text x="796" y="226" font-size="9" fill="#1a5276">+downloadRecords(): File</text>
<rect x="30" y="330" width="220" height="168" fill="#fff" stroke="#2980b9" stroke-width="2" rx="3"/>
<rect x="30" y="330" width="220" height="26" fill="#2980b9" rx="3"/>
<rect x="30" y="343" width="220" height="13" fill="#2980b9"/>
<text x="140" y="348" text-anchor="middle" font-size="12" font-weight="bold" fill="#fff">ChatMessage</text>
<text x="36" y="370" font-size="9" fill="#333">+message_id: UUID</text>
<text x="36" y="384" font-size="9" fill="#333">+sender_id: UUID</text>
<text x="36" y="398" font-size="9" fill="#333">+receiver_id: UUID</text>
<text x="36" y="412" font-size="9" fill="#333">+encrypted_body: string</text>
<text x="36" y="426" font-size="9" fill="#333">+delivered: boolean</text>
<line x1="30" y1="434" x2="250" y2="434" stroke="#2980b9" stroke-width="1"/>
<text x="36" y="450" font-size="9" fill="#1a5276">+encrypt(plaintext): string</text>
<text x="36" y="464" font-size="9" fill="#1a5276">+send(): void</text>
<text x="36" y="478" font-size="9" fill="#1a5276">+markDelivered(): void</text>
<text x="36" y="492" font-size="9" fill="#1a5276">+softDelete(): void</text>
<rect x="290" y="330" width="220" height="182" fill="#fff" stroke="#2980b9" stroke-width="2" rx="3"/>
<rect x="290" y="330" width="220" height="26" fill="#2980b9" rx="3"/>
<rect x="290" y="343" width="220" height="13" fill="#2980b9"/>
<text x="400" y="348" text-anchor="middle" font-size="12" font-weight="bold" fill="#fff">MoodEntry</text>
<text x="296" y="370" font-size="9" fill="#333">+mood_id: UUID</text>
<text x="296" y="384" font-size="9" fill="#333">+user_id: UUID</text>
<text x="296" y="398" font-size="9" fill="#333">+score: int</text>
<text x="296" y="412" font-size="9" fill="#333">+notes: string</text>
<text x="296" y="426" font-size="9" fill="#333">+entry_date: Date</text>
<line x1="290" y1="434" x2="510" y2="434" stroke="#2980b9" stroke-width="1"/>
<text x="296" y="450" font-size="9" fill="#1a5276">+submit(data): MoodEntry</text>
<text x="296" y="464" font-size="9" fill="#1a5276">+checkDuplicate(): boolean</text>
<text x="296" y="478" font-size="9" fill="#1a5276">+weeklyReport(): Report</text>
<text x="296" y="492" font-size="9" fill="#1a5276">+triggerRiskAlert(): void</text>
<text x="296" y="506" font-size="9" fill="#1a5276">+recommendResources(): Res[]</text>
<rect x="530" y="330" width="220" height="154" fill="#fff" stroke="#2980b9" stroke-width="2" rx="3"/>
<rect x="530" y="330" width="220" height="26" fill="#2980b9" rx="3"/>
<rect x="530" y="343" width="220" height="13" fill="#2980b9"/>
<text x="640" y="348" text-anchor="middle" font-size="12" font-weight="bold" fill="#fff">Chatbot</text>
<text x="536" y="370" font-size="9" fill="#333">+transcript_id: UUID</text>
<text x="536" y="384" font-size="9" fill="#333">+user_id: UUID</text>
<text x="536" y="398" font-size="9" fill="#333">+confidence: float</text>
<text x="536" y="412" font-size="9" fill="#333">+escalated: boolean</text>
<line x1="530" y1="420" x2="750" y2="420" stroke="#2980b9" stroke-width="1"/>
<text x="536" y="436" font-size="9" fill="#1a5276">+processQuery(q): Response</text>
<text x="536" y="450" font-size="9" fill="#1a5276">+escalateToHuman(): void</text>
<text x="536" y="464" font-size="9" fill="#1a5276">+storeTranscript(): void</text>
<text x="536" y="478" font-size="9" fill="#1a5276">+detectInactive(): User[]</text>
<rect x="790" y="330" width="220" height="140" fill="#fff" stroke="#2980b9" stroke-width="2" rx="3"/>
<rect x="790" y="330" width="220" height="26" fill="#2980b9" rx="3"/>
<rect x="790" y="343" width="220" height="13" fill="#2980b9"/>
<text x="900" y="348" text-anchor="middle" font-size="12" font-weight="bold" fill="#fff">Emergency</text>
<text x="796" y="370" font-size="9" fill="#333">+log_id: UUID</text>
<text x="796" y="384" font-size="9" fill="#333">+user_id: UUID</text>
<text x="796" y="398" font-size="9" fill="#333">+activated_at: DateTime</text>
<text x="796" y="412" font-size="9" fill="#333">+hotline_data: JSON</text>
<line x1="790" y1="420" x2="1010" y2="420" stroke="#2980b9" stroke-width="1"/>
<text x="796" y="436" font-size="9" fill="#1a5276">+activate(): Log</text>
<text x="796" y="450" font-size="9" fill="#1a5276">+fetchHotlines(): Hotline[]</text>
<text x="796" y="464" font-size="9" fill="#1a5276">+logActivation(): void</text>
<rect x="30" y="600" width="220" height="168" fill="#fff" stroke="#2980b9" stroke-width="2" rx="3"/>
<rect x="30" y="600" width="220" height="26" fill="#2980b9" rx="3"/>
<rect x="30" y="613" width="220" height="13" fill="#2980b9"/>
<text x="140" y="618" text-anchor="middle" font-size="12" font-weight="bold" fill="#fff">Notification</text>
<text x="36" y="640" font-size="9" fill="#333">+notif_id: UUID</text>
<text x="36" y="654" font-size="9" fill="#333">+user_id: UUID</text>
<text x="36" y="668" font-size="9" fill="#333">+type: NotifType</text>
<text x="36" y="682" font-size="9" fill="#333">+channel: Channel</text>
<text x="36" y="696" font-size="9" fill="#333">+retry_count: int</text>
<line x1="30" y1="704" x2="250" y2="704" stroke="#2980b9" stroke-width="1"/>
<text x="36" y="720" font-size="9" fill="#1a5276">+send(): void</text>
<text x="36" y="734" font-size="9" fill="#1a5276">+retry(): void</text>
<text x="36" y="748" font-size="9" fill="#1a5276">+queueDuringDowntime(): void</text>
<text x="36" y="762" font-size="9" fill="#1a5276">+followUpMissed(): void</text>
<rect x="290" y="600" width="200" height="154" fill="#fff" stroke="#2980b9" stroke-width="2" rx="3"/>
<rect x="290" y="600" width="200" height="26" fill="#2980b9" rx="3"/>
<rect x="290" y="613" width="200" height="13" fill="#2980b9"/>
<text x="390" y="618" text-anchor="middle" font-size="12" font-weight="bold" fill="#fff">Resource</text>
<text x="296" y="640" font-size="9" fill="#333">+resource_id: UUID</text>
<text x="296" y="654" font-size="9" fill="#333">+title: string</text>
<text x="296" y="668" font-size="9" fill="#333">+url: string</text>
<text x="296" y="682" font-size="9" fill="#333">+url_valid: boolean</text>
<text x="296" y="696" font-size="9" fill="#333">+view_count: int</text>
<line x1="290" y1="704" x2="490" y2="704" stroke="#2980b9" stroke-width="1"/>
<text x="296" y="720" font-size="9" fill="#1a5276">+addResource(data): Res</text>
<text x="296" y="734" font-size="9" fill="#1a5276">+validateURL(): boolean</text>
<text x="296" y="748" font-size="9" fill="#1a5276">+trackView(): void</text>
<rect x="530" y="600" width="220" height="154" fill="#fff" stroke="#2980b9" stroke-width="2" rx="3"/>
<rect x="530" y="600" width="220" height="26" fill="#2980b9" rx="3"/>
<rect x="530" y="613" width="220" height="13" fill="#2980b9"/>
<text x="640" y="618" text-anchor="middle" font-size="12" font-weight="bold" fill="#fff">Analytics</text>
<text x="536" y="640" font-size="9" fill="#333">+analytics_id: UUID</text>
<text x="536" y="654" font-size="9" fill="#333">+report_type: ReportType</text>
<text x="536" y="668" font-size="9" fill="#333">+data: JSON</text>
<text x="536" y="682" font-size="9" fill="#333">+period: string</text>
<line x1="530" y1="690" x2="750" y2="690" stroke="#2980b9" stroke-width="1"/>
<text x="536" y="706" font-size="9" fill="#1a5276">+generateMonthly(): Report</text>
<text x="536" y="720" font-size="9" fill="#1a5276">+clinicianWorkload(): Metric</text>
<text x="536" y="734" font-size="9" fill="#1a5276">+complianceReport(): Report</text>
<text x="536" y="748" font-size="9" fill="#1a5276">+exportCSV(): File</text>
<rect x="790" y="600" width="220" height="154" fill="#fff" stroke="#2980b9" stroke-width="2" rx="3"/>
<rect x="790" y="600" width="220" height="26" fill="#2980b9" rx="3"/>
<rect x="790" y="613" width="220" height="13" fill="#2980b9"/>
<text x="900" y="618" text-anchor="middle" font-size="12" font-weight="bold" fill="#fff">Admin</text>
<text x="796" y="640" font-size="9" fill="#333">+admin_id: UUID</text>
<text x="796" y="654" font-size="9" fill="#333">+permissions: string[]</text>
<line x1="790" y1="662" x2="1010" y2="662" stroke="#2980b9" stroke-width="1"/>
<text x="796" y="678" font-size="9" fill="#1a5276">+manageUsers(): void</text>
<text x="796" y="692" font-size="9" fill="#1a5276">+assignRoles(): void</text>
<text x="796" y="706" font-size="9" fill="#1a5276">+deactivateAccount(): void</text>
<text x="796" y="720" font-size="9" fill="#1a5276">+viewAuditTrails(): Log[]</text>
<text x="796" y="734" font-size="9" fill="#1a5276">+createBackup(): Backup</text>
<text x="796" y="748" font-size="9" fill="#1a5276">+restoreBackup(id): void</text>
<line x1="250" y1="150" x2="290" y2="100" stroke="#888" stroke-width="1.2"/>
<line x1="250" y1="120" x2="530" y2="80" stroke="#888" stroke-width="1.2"/>
<line x1="250" y1="130" x2="530" y2="360" stroke="#888" stroke-width="1.2"/>
<line x1="750" y1="100" x2="790" y2="100" stroke="#888" stroke-width="1.2"/>
<line x1="250" y1="200" x2="30" y2="330" stroke="#888" stroke-width="1.2"/>
<line x1="250" y1="180" x2="290" y2="330" stroke="#888" stroke-width="1.2"/>
</svg>