<?xml version="1.0" encoding="UTF-8"?>
<svg xmlns="http://www.w3.org/2000/svg" viewBox="0 0 1100 720" style="font-family:'Segoe UI',Calibri,Arial,sans-serif;">

  <!-- White Background -->
  <rect width="1100" height="720" fill="#ffffff"/>

  <!-- ═══════════ HEADER ═══════════ -->
  <rect x="0" y="0" width="1100" height="50" rx="0" fill="#3366CC"/>
  <text x="20" y="33" font-size="18" font-weight="bold" fill="#fff">TASK</text>

  <!-- Week column headers -->
  <!-- Each week column = 70px wide, starting at x=230 -->
  <g font-size="11" font-weight="bold" fill="#fff" text-anchor="middle">
    <text x="265" y="20">Week 1</text>
    <text x="335" y="20">Week 2</text>
    <text x="405" y="20">Week 3</text>
    <text x="475" y="20">Week 4</text>
    <text x="545" y="20">Week 5</text>
    <text x="615" y="20">Week 6</text>
    <text x="685" y="20">Week 7</text>
    <text x="755" y="20">Week 8</text>
    <text x="825" y="20">Week 9</text>
    <text x="895" y="20">Week 10</text>
    <text x="965" y="20">Week 11</text>
    <text x="1035" y="20">Week 12</text>
  </g>
  <!-- Sub-labels: Phase -->
  <g font-size="8" fill="#ddd" text-anchor="middle">
    <text x="265" y="38">Plan</text>
    <text x="335" y="38">Plan</text>
    <text x="405" y="38">Req</text>
    <text x="475" y="38">Arch</text>
    <text x="545" y="38">DB</text>
    <text x="615" y="38">UI/UX</text>
    <text x="685" y="38">Dev</text>
    <text x="755" y="38">Dev</text>
    <text x="825" y="38">Front</text>
    <text x="895" y="38">Integ</text>
    <text x="965" y="38">Test</text>
    <text x="1035" y="38">Demo</text>
  </g>

  <!-- Column grid lines -->
  <g stroke="#e8e8e8" stroke-width="0.5">
    <line x1="230" y1="50" x2="230" y2="620"/>
    <line x1="300" y1="50" x2="300" y2="620"/>
    <line x1="370" y1="50" x2="370" y2="620"/>
    <line x1="440" y1="50" x2="440" y2="620"/>
    <line x1="510" y1="50" x2="510" y2="620"/>
    <line x1="580" y1="50" x2="580" y2="620"/>
    <line x1="650" y1="50" x2="650" y2="620"/>
    <line x1="720" y1="50" x2="720" y2="620"/>
    <line x1="790" y1="50" x2="790" y2="620"/>
    <line x1="860" y1="50" x2="860" y2="620"/>
    <line x1="930" y1="50" x2="930" y2="620"/>
    <line x1="1000" y1="50" x2="1000" y2="620"/>
    <line x1="1070" y1="50" x2="1070" y2="620"/>
  </g>

  <!-- Row backgrounds (alternating) -->
  <rect x="0" y="50" width="1100" height="38" fill="#f9f9f9"/>
  <rect x="0" y="88" width="1100" height="38" fill="#ffffff"/>
  <rect x="0" y="126" width="1100" height="38" fill="#f9f9f9"/>
  <rect x="0" y="164" width="1100" height="38" fill="#ffffff"/>
  <rect x="0" y="202" width="1100" height="38" fill="#f9f9f9"/>
  <rect x="0" y="240" width="1100" height="38" fill="#ffffff"/>
  <rect x="0" y="278" width="1100" height="38" fill="#f9f9f9"/>
  <rect x="0" y="316" width="1100" height="38" fill="#ffffff"/>
  <rect x="0" y="354" width="1100" height="38" fill="#f9f9f9"/>
  <rect x="0" y="392" width="1100" height="38" fill="#ffffff"/>
  <rect x="0" y="430" width="1100" height="38" fill="#f9f9f9"/>
  <rect x="0" y="468" width="1100" height="38" fill="#ffffff"/>
  <rect x="0" y="506" width="1100" height="38" fill="#f9f9f9"/>
  <rect x="0" y="544" width="1100" height="38" fill="#ffffff"/>
  <rect x="0" y="582" width="1100" height="38" fill="#f9f9f9"/>

  <!-- ═══════════ TASK LABELS (Left) ═══════════ -->
  <g font-size="11.5" fill="#333">
    <!-- Color dots + Task names -->
    <!-- Row 1: Discovery & Planning -->
    <rect x="12" y="63" width="10" height="10" rx="2" fill="#4285F4"/>
    <text x="28" y="73" font-weight="600">Discovery &amp; Planning</text>

    <!-- Row 2: Requirements Documentation -->
    <rect x="12" y="101" width="10" height="10" rx="2" fill="#4285F4"/>
    <text x="28" y="111" font-weight="600">Requirements Documentation</text>

    <!-- Row 3: System Architecture Design -->
    <rect x="12" y="139" width="10" height="10" rx="2" fill="#BB86FC"/>
    <text x="28" y="149" font-weight="600">System Architecture Design</text>

    <!-- Row 4: Database & API Design -->
    <rect x="12" y="177" width="10" height="10" rx="2" fill="#BB86FC"/>
    <text x="28" y="187" font-weight="600">Database &amp; API Design</text>

    <!-- Row 5: UI/UX Design -->
    <rect x="12" y="215" width="10" height="10" rx="2" fill="#BB86FC"/>
    <text x="28" y="225" font-weight="600">UI/UX Design</text>

    <!-- Row 6: Backend Development Pt.1 -->
    <rect x="12" y="253" width="10" height="10" rx="2" fill="#34A853"/>
    <text x="28" y="263" font-weight="600">Backend Development Pt. 1</text>

    <!-- Row 7: Backend Development Pt.2 -->
    <rect x="12" y="291" width="10" height="10" rx="2" fill="#34A853"/>
    <text x="28" y="301" font-weight="600">Backend Development Pt. 2</text>

    <!-- Row 8: Frontend Development -->
    <rect x="12" y="329" width="10" height="10" rx="2" fill="#34A853"/>
    <text x="28" y="339" font-weight="600">Frontend Development</text>

    <!-- Row 9: Auth & Authorization -->
    <rect x="12" y="367" width="10" height="10" rx="2" fill="#FFA726"/>
    <text x="28" y="377" font-weight="600">Auth &amp; Authorization Module</text>

    <!-- Row 10: Mood, Messaging, Chatbot -->
    <rect x="12" y="405" width="10" height="10" rx="2" fill="#FFA726"/>
    <text x="28" y="415" font-weight="600">Mood, Messaging &amp; Chatbot</text>

    <!-- Row 11: System Integration -->
    <rect x="12" y="443" width="10" height="10" rx="2" fill="#34A853"/>
    <text x="28" y="453" font-weight="600">System Integration</text>

    <!-- Row 12: Testing & Deployment -->
    <rect x="12" y="481" width="10" height="10" rx="2" fill="#EA4335"/>
    <text x="28" y="491" font-weight="600">Testing &amp; Deployment</text>

    <!-- Row 13: Final Demo & Report -->
    <rect x="12" y="519" width="10" height="10" rx="2" fill="#EA4335"/>
    <text x="28" y="529" font-weight="600">Final Demo &amp; Report</text>

    <!-- Row 14: Documentation -->
    <rect x="12" y="557" width="10" height="10" rx="2" fill="#EA4335"/>
    <text x="28" y="567" font-weight="600">Documentation &amp; Handover</text>

    <!-- Row 15: Milestones -->
    <text x="12" y="607" font-size="12" font-weight="bold" fill="#EA4335">◆ Milestones</text>
  </g>

  <!-- ═══════════ GANTT BARS ═══════════ -->
  <!-- Week positions: W1=230, W2=300, W3=370, W4=440, W5=510, W6=580, W7=650, W8=720, W9=790, W10=860, W11=930, W12=1000 -->
  <!-- Each week = 70px -->

  <!-- Row 1: Discovery & Planning — Week 1–2 (Planning, Blue) -->
  <rect x="230" y="58" width="140" height="22" rx="4" fill="#4285F4" opacity="0.9"/>
  <text x="300" y="73" text-anchor="middle" font-size="9" fill="#fff" font-weight="600">W1–W2</text>

  <!-- Row 2: Requirements Documentation — Week 3 (Planning, Blue) -->
  <rect x="370" y="96" width="70" height="22" rx="4" fill="#4285F4" opacity="0.9"/>
  <text x="405" y="111" text-anchor="middle" font-size="9" fill="#fff" font-weight="600">W3</text>

  <!-- Row 3: System Architecture Design — Week 4 (Design, Purple) -->
  <rect x="440" y="134" width="70" height="22" rx="4" fill="#BB86FC" opacity="0.9"/>
  <text x="475" y="149" text-anchor="middle" font-size="9" fill="#fff" font-weight="600">W4</text>

  <!-- Row 4: Database & API Design — Week 5 (Design, Purple) -->
  <rect x="510" y="172" width="70" height="22" rx="4" fill="#BB86FC" opacity="0.9"/>
  <text x="545" y="187" text-anchor="middle" font-size="9" fill="#fff" font-weight="600">W5</text>

  <!-- Row 5: UI/UX Design — Week 5–6 (Design, Purple) -->
  <rect x="510" y="210" width="140" height="22" rx="4" fill="#BB86FC" opacity="0.9"/>
  <text x="580" y="225" text-anchor="middle" font-size="9" fill="#fff" font-weight="600">W5–W6</text>

  <!-- Row 6: Backend Development Pt.1 — Week 7 (Dev, Green) spans W7 -->
  <rect x="650" y="248" width="70" height="22" rx="4" fill="#34A853" opacity="0.9"/>
  <text x="685" y="263" text-anchor="middle" font-size="9" fill="#fff" font-weight="600">W7</text>

  <!-- Row 7: Backend Development Pt.2 — Week 8 (Dev, Green) -->
  <rect x="720" y="286" width="70" height="22" rx="4" fill="#34A853" opacity="0.9"/>
  <text x="755" y="301" text-anchor="middle" font-size="9" fill="#fff" font-weight="600">W8</text>

  <!-- Row 8: Frontend Development — Week 9 (Dev, Green) -->
  <rect x="790" y="324" width="70" height="22" rx="4" fill="#34A853" opacity="0.9"/>
  <text x="825" y="339" text-anchor="middle" font-size="9" fill="#fff" font-weight="600">W9</text>

  <!-- Row 9: Auth & Authorization — Week 7–8 (Module, Orange) -->
  <rect x="650" y="362" width="140" height="22" rx="4" fill="#FFA726" opacity="0.9"/>
  <text x="720" y="377" text-anchor="middle" font-size="9" fill="#fff" font-weight="600">W7–W8</text>

  <!-- Row 10: Mood, Messaging, Chatbot — Week 8–9 (Module, Orange) -->
  <rect x="720" y="400" width="140" height="22" rx="4" fill="#FFA726" opacity="0.9"/>
  <text x="790" y="415" text-anchor="middle" font-size="9" fill="#fff" font-weight="600">W8–W9</text>

  <!-- Row 11: System Integration — Week 10 (Dev, Green) -->
  <rect x="860" y="438" width="70" height="22" rx="4" fill="#34A853" opacity="0.9"/>
  <text x="895" y="453" text-anchor="middle" font-size="9" fill="#fff" font-weight="600">W10</text>

  <!-- Row 12: Testing & Deployment — Week 11 (QA, Red) -->
  <rect x="930" y="476" width="70" height="22" rx="4" fill="#EA4335" opacity="0.9"/>
  <text x="965" y="491" text-anchor="middle" font-size="9" fill="#fff" font-weight="600">W11</text>

  <!-- Row 13: Final Demo & Report — Week 12 (QA, Red) -->
  <rect x="1000" y="514" width="70" height="22" rx="4" fill="#EA4335" opacity="0.9"/>
  <text x="1035" y="529" text-anchor="middle" font-size="9" fill="#fff" font-weight="600">W12</text>

  <!-- Row 14: Documentation — Week 11–12 (QA, Red) -->
  <rect x="930" y="552" width="140" height="22" rx="4" fill="#EA4335" opacity="0.85"/>
  <text x="1000" y="567" text-anchor="middle" font-size="9" fill="#fff" font-weight="600">W11–W12</text>

  <!-- ═══════════ MILESTONES (Diamond markers) ═══════════ -->
  <!-- Milestone 1: SRS Complete — end of Week 3 -->
  <polygon points="440,600 450,590 460,600 450,610" fill="#EA4335"/>
  <text x="450" y="623" text-anchor="middle" font-size="8" fill="#EA4335" font-weight="600">SRS Done</text>

  <!-- Milestone 2: Mid-Project Deliverable — end of Week 8 -->
  <polygon points="780,600 790,590 800,600 790,610" fill="#EA4335"/>
  <text x="790" y="623" text-anchor="middle" font-size="8" fill="#EA4335" font-weight="600">Mid-Project</text>

  <!-- Milestone 3: Final Delivery — end of Week 12 -->
  <polygon points="1060,600 1070,590 1080,600 1070,610" fill="#EA4335"/>
  <text x="1070" y="623" text-anchor="middle" font-size="8" fill="#EA4335" font-weight="600">Final Demo</text>

  <!-- "In Progress" indicator on Backend Dev Pt.1 -->
  <rect x="650" y="248" width="70" height="22" rx="4" fill="none" stroke="#1B5E20" stroke-width="2.5" stroke-dasharray="4 2"/>

  <!-- ═══════════ STATUS INDICATORS ═══════════ -->
  <!-- Completed tasks: checkmarks -->
  <g font-size="13" fill="#34A853">
    <text x="215" y="74">✓</text>
    <text x="215" y="112">✓</text>
    <text x="215" y="150">✓</text>
    <text x="215" y="188">✓</text>
    <text x="215" y="226">✓</text>
  </g>
  <!-- In Progress -->
  <rect x="195" y="252" width="32" height="14" rx="3" fill="#FFA726"/>
  <text x="211" y="263" text-anchor="middle" font-size="7" fill="#fff" font-weight="bold">IP</text>

  <!-- ═══════════ LEGEND ═══════════ -->
  <g transform="translate(50, 660)">
    <rect x="0" y="0" width="16" height="12" rx="3" fill="#4285F4"/>
    <text x="22" y="11" font-size="10" fill="#555">Planning</text>

    <rect x="100" y="0" width="16" height="12" rx="3" fill="#BB86FC"/>
    <text x="122" y="11" font-size="10" fill="#555">Design</text>

    <rect x="190" y="0" width="16" height="12" rx="3" fill="#34A853"/>
    <text x="212" y="11" font-size="10" fill="#555">Development</text>

    <rect x="310" y="0" width="16" height="12" rx="3" fill="#FFA726"/>
    <text x="332" y="11" font-size="10" fill="#555">Module</text>

    <rect x="400" y="0" width="16" height="12" rx="3" fill="#EA4335"/>
    <text x="422" y="11" font-size="10" fill="#555">QA &amp; Deploy</text>

    <polygon points="520,6 527,0 534,6 527,12" fill="#EA4335"/>
    <text x="542" y="11" font-size="10" fill="#555">Milestone</text>

    <text x="620" y="11" font-size="10" fill="#555">✓ Completed</text>

    <rect x="710" y="0" width="30" height="12" rx="3" fill="#FFA726"/>
    <text x="715" y="10" font-size="7" fill="#fff" font-weight="bold">IP</text>
    <text x="746" y="11" font-size="10" fill="#555">In Progress</text>
  </g>

  <!-- ═══════════ FOOTER ═══════════ -->
  <text x="550" y="700" text-anchor="middle" font-size="9" fill="#999" font-style="italic">Figure 1.11 — Gantt Chart | Mental Health Support Platform | Mel23 Tech Solution</text>
  <text x="550" y="714" text-anchor="middle" font-size="8" fill="#bbb">© 2026 Mel23 Tech Solution — Kent Institute of Technology Australia</text>
</svg>