<?xml version="1.0" encoding="UTF-8"?>
<svg xmlns="http://www.w3.org/2000/svg" viewBox="0 0 1520 1350" style="width:100%;font-family:'Segoe UI',Calibri,Arial,sans-serif;background:#f8fafe;">
  <defs>
    <linearGradient id="headerBg" x1="0" y1="0" x2="1" y2="0">
      <stop offset="0%" stop-color="#1565c0"/><stop offset="100%" stop-color="#0d47a1"/>
    </linearGradient>
    <linearGradient id="entityHeader" x1="0" y1="0" x2="1" y2="0">
      <stop offset="0%" stop-color="#1976d2"/><stop offset="100%" stop-color="#1565c0"/>
    </linearGradient>
    <linearGradient id="entityHeaderGreen" x1="0" y1="0" x2="1" y2="0">
      <stop offset="0%" stop-color="#2e7d32"/><stop offset="100%" stop-color="#1b5e20"/>
    </linearGradient>
    <linearGradient id="entityHeaderOrange" x1="0" y1="0" x2="1" y2="0">
      <stop offset="0%" stop-color="#e65100"/><stop offset="100%" stop-color="#bf360c"/>
    </linearGradient>
    <linearGradient id="entityHeaderPurple" x1="0" y1="0" x2="1" y2="0">
      <stop offset="0%" stop-color="#7b1fa2"/><stop offset="100%" stop-color="#6a1b9a"/>
    </linearGradient>
    <linearGradient id="entityHeaderTeal" x1="0" y1="0" x2="1" y2="0">
      <stop offset="0%" stop-color="#00838f"/><stop offset="100%" stop-color="#006064"/>
    </linearGradient>
    <linearGradient id="entityHeaderRed" x1="0" y1="0" x2="1" y2="0">
      <stop offset="0%" stop-color="#c62828"/><stop offset="100%" stop-color="#b71c1c"/>
    </linearGradient>
    <filter id="entityShadow" x="-4%" y="-4%" width="110%" height="115%">
      <feDropShadow dx="2" dy="3" stdDeviation="4" flood-opacity="0.15" flood-color="#37474f"/>
    </filter>
  </defs>

  <!-- Background -->
  <rect width="1520" height="1350" fill="#f8fafe"/>

  <!-- Title Bar -->
  <rect x="0" y="0" width="1520" height="56" rx="12" fill="url(#headerBg)"/>
  <rect x="0" y="28" width="1520" height="28" fill="url(#headerBg)"/>
  <text x="760" y="37" text-anchor="middle" font-size="20" font-weight="bold" fill="#ffffff" letter-spacing="0.5">Entity Relationship Diagram — Mental Health Support Platform</text>

  <!-- ═══════════════════════════════════════ -->
  <!-- ROW 1 ENTITIES                         -->
  <!-- ═══════════════════════════════════════ -->

  <!-- Users -->
  <g transform="translate(40, 90)" filter="url(#entityShadow)">
    <rect width="210" height="210" rx="8" fill="#ffffff" stroke="#1565c0" stroke-width="2"/>
    <rect width="210" height="32" rx="8" fill="url(#entityHeader)"/>
    <rect y="24" width="210" height="8" fill="url(#entityHeader)"/>
    <text x="105" y="22" text-anchor="middle" font-size="13" font-weight="bold" fill="#fff">Users</text>
    <line x1="0" y1="32" x2="210" y2="32" stroke="#1565c0" stroke-width="1"/>
    <text x="12" y="52" font-size="9.5" fill="#d32f2f" font-weight="bold">🔑 PK  user_id  UUID</text>
    <line x1="8" y1="58" x2="202" y2="58" stroke="#e0e0e0" stroke-width="0.5"/>
    <text x="16" y="74" font-size="9" fill="#37474f">email</text><text x="130" y="74" font-size="9" fill="#78909c">VARCHAR(255)</text>
    <text x="16" y="90" font-size="9" fill="#37474f">password_hash</text><text x="130" y="90" font-size="9" fill="#78909c">TEXT</text>
    <text x="16" y="106" font-size="9" fill="#37474f">role</text><text x="130" y="106" font-size="9" fill="#78909c">ENUM</text>
    <text x="16" y="122" font-size="9" fill="#37474f">verified</text><text x="130" y="122" font-size="9" fill="#78909c">BOOLEAN</text>
    <text x="16" y="138" font-size="9" fill="#37474f">locked</text><text x="130" y="138" font-size="9" fill="#78909c">BOOLEAN</text>
    <text x="16" y="154" font-size="9" fill="#37474f">mfa_enabled</text><text x="130" y="154" font-size="9" fill="#78909c">BOOLEAN</text>
    <text x="16" y="170" font-size="9" fill="#37474f">created_at</text><text x="130" y="170" font-size="9" fill="#78909c">TIMESTAMP</text>
    <text x="16" y="186" font-size="9" fill="#37474f">last_login</text><text x="130" y="186" font-size="9" fill="#78909c">TIMESTAMP</text>
  </g>

  <!-- Profiles -->
  <g transform="translate(330, 90)" filter="url(#entityShadow)">
    <rect width="210" height="175" rx="8" fill="#ffffff" stroke="#1565c0" stroke-width="2"/>
    <rect width="210" height="32" rx="8" fill="url(#entityHeader)"/>
    <rect y="24" width="210" height="8" fill="url(#entityHeader)"/>
    <text x="105" y="22" text-anchor="middle" font-size="13" font-weight="bold" fill="#fff">Profiles</text>
    <line x1="0" y1="32" x2="210" y2="32" stroke="#1565c0" stroke-width="1"/>
    <text x="12" y="52" font-size="9.5" fill="#d32f2f" font-weight="bold">🔑 PK  profile_id  UUID</text>
    <line x1="8" y1="58" x2="202" y2="58" stroke="#e0e0e0" stroke-width="0.5"/>
    <text x="12" y="74" font-size="9.5" fill="#1565c0" font-weight="600">🔗 FK  user_id  UUID</text>
    <line x1="8" y1="80" x2="202" y2="80" stroke="#e0e0e0" stroke-width="0.5"/>
    <text x="16" y="96" font-size="9" fill="#37474f">display_name</text><text x="130" y="96" font-size="9" fill="#78909c">VARCHAR</text>
    <text x="16" y="112" font-size="9" fill="#37474f">avatar_url</text><text x="130" y="112" font-size="9" fill="#78909c">TEXT</text>
    <text x="16" y="128" font-size="9" fill="#37474f">language</text><text x="130" y="128" font-size="9" fill="#78909c">VARCHAR</text>
    <text x="16" y="144" font-size="9" fill="#37474f">updated_at</text><text x="130" y="144" font-size="9" fill="#78909c">TIMESTAMP</text>
  </g>

  <!-- Appointments -->
  <g transform="translate(620, 90)" filter="url(#entityShadow)">
    <rect width="220" height="225" rx="8" fill="#ffffff" stroke="#2e7d32" stroke-width="2"/>
    <rect width="220" height="32" rx="8" fill="url(#entityHeaderGreen)"/>
    <rect y="24" width="220" height="8" fill="url(#entityHeaderGreen)"/>
    <text x="110" y="22" text-anchor="middle" font-size="13" font-weight="bold" fill="#fff">Appointments</text>
    <line x1="0" y1="32" x2="220" y2="32" stroke="#2e7d32" stroke-width="1"/>
    <text x="12" y="52" font-size="9.5" fill="#d32f2f" font-weight="bold">🔑 PK  appt_id  UUID</text>
    <line x1="8" y1="58" x2="212" y2="58" stroke="#e0e0e0" stroke-width="0.5"/>
    <text x="12" y="74" font-size="9.5" fill="#1565c0" font-weight="600">🔗 FK  patient_id  UUID</text>
    <text x="12" y="90" font-size="9.5" fill="#1565c0" font-weight="600">🔗 FK  clinician_id  UUID</text>
    <line x1="8" y1="96" x2="212" y2="96" stroke="#e0e0e0" stroke-width="0.5"/>
    <text x="16" y="112" font-size="9" fill="#37474f">date_time</text><text x="140" y="112" font-size="9" fill="#78909c">TIMESTAMP</text>
    <text x="16" y="128" font-size="9" fill="#37474f">status</text><text x="140" y="128" font-size="9" fill="#78909c">ENUM</text>
    <text x="16" y="144" font-size="9" fill="#37474f">gcal_event_id</text><text x="140" y="144" font-size="9" fill="#78909c">TEXT</text>
    <text x="16" y="160" font-size="9" fill="#37474f">missed</text><text x="140" y="160" font-size="9" fill="#78909c">BOOLEAN</text>
    <text x="16" y="176" font-size="9" fill="#37474f">created_at</text><text x="140" y="176" font-size="9" fill="#78909c">TIMESTAMP</text>
    <text x="16" y="192" font-size="9" fill="#37474f">auto_cancelled</text><text x="140" y="192" font-size="9" fill="#78909c">BOOLEAN</text>
  </g>

  <!-- ClinicalRecords -->
  <g transform="translate(920, 90)" filter="url(#entityShadow)">
    <rect width="220" height="195" rx="8" fill="#ffffff" stroke="#2e7d32" stroke-width="2"/>
    <rect width="220" height="32" rx="8" fill="url(#entityHeaderGreen)"/>
    <rect y="24" width="220" height="8" fill="url(#entityHeaderGreen)"/>
    <text x="110" y="22" text-anchor="middle" font-size="13" font-weight="bold" fill="#fff">ClinicalRecords</text>
    <line x1="0" y1="32" x2="220" y2="32" stroke="#2e7d32" stroke-width="1"/>
    <text x="12" y="52" font-size="9.5" fill="#d32f2f" font-weight="bold">🔑 PK  record_id  UUID</text>
    <line x1="8" y1="58" x2="212" y2="58" stroke="#e0e0e0" stroke-width="0.5"/>
    <text x="12" y="74" font-size="9.5" fill="#1565c0" font-weight="600">🔗 FK  patient_id  UUID</text>
    <text x="12" y="90" font-size="9.5" fill="#1565c0" font-weight="600">🔗 FK  clinician_id  UUID</text>
    <line x1="8" y1="96" x2="212" y2="96" stroke="#e0e0e0" stroke-width="0.5"/>
    <text x="16" y="112" font-size="9" fill="#37474f">session_notes</text><text x="140" y="112" font-size="9" fill="#78909c">TEXT</text>
    <text x="16" y="128" font-size="9" fill="#37474f">record_type</text><text x="140" y="128" font-size="9" fill="#78909c">ENUM</text>
    <text x="16" y="144" font-size="9" fill="#37474f">retention_date</text><text x="140" y="144" font-size="9" fill="#78909c">DATE</text>
    <text x="16" y="160" font-size="9" fill="#37474f">created_at</text><text x="140" y="160" font-size="9" fill="#78909c">TIMESTAMP</text>
  </g>

  <!-- ClinicalDocuments -->
  <g transform="translate(1220, 90)" filter="url(#entityShadow)">
    <rect width="220" height="175" rx="8" fill="#ffffff" stroke="#2e7d32" stroke-width="2"/>
    <rect width="220" height="32" rx="8" fill="url(#entityHeaderGreen)"/>
    <rect y="24" width="220" height="8" fill="url(#entityHeaderGreen)"/>
    <text x="110" y="22" text-anchor="middle" font-size="13" font-weight="bold" fill="#fff">ClinicalDocuments</text>
    <line x1="0" y1="32" x2="220" y2="32" stroke="#2e7d32" stroke-width="1"/>
    <text x="12" y="52" font-size="9.5" fill="#d32f2f" font-weight="bold">🔑 PK  doc_id  UUID</text>
    <line x1="8" y1="58" x2="212" y2="58" stroke="#e0e0e0" stroke-width="0.5"/>
    <text x="12" y="74" font-size="9.5" fill="#1565c0" font-weight="600">🔗 FK  record_id  UUID</text>
    <line x1="8" y1="80" x2="212" y2="80" stroke="#e0e0e0" stroke-width="0.5"/>
    <text x="16" y="96" font-size="9" fill="#37474f">file_url</text><text x="140" y="96" font-size="9" fill="#78909c">TEXT</text>
    <text x="16" y="112" font-size="9" fill="#37474f">file_type</text><text x="140" y="112" font-size="9" fill="#78909c">VARCHAR</text>
    <text x="16" y="128" font-size="9" fill="#37474f">file_size</text><text x="140" y="128" font-size="9" fill="#78909c">INT</text>
    <text x="16" y="144" font-size="9" fill="#37474f">validated</text><text x="140" y="144" font-size="9" fill="#78909c">BOOLEAN</text>
  </g>

  <!-- ═══════════════════════════════════════ -->
  <!-- ROW 2 ENTITIES                         -->
  <!-- ═══════════════════════════════════════ -->

  <!-- ChatMessages -->
  <g transform="translate(40, 400)" filter="url(#entityShadow)">
    <rect width="210" height="175" rx="8" fill="#ffffff" stroke="#7b1fa2" stroke-width="2"/>
    <rect width="210" height="32" rx="8" fill="url(#entityHeaderPurple)"/>
    <rect y="24" width="210" height="8" fill="url(#entityHeaderPurple)"/>
    <text x="105" y="22" text-anchor="middle" font-size="13" font-weight="bold" fill="#fff">ChatMessages</text>
    <line x1="0" y1="32" x2="210" y2="32" stroke="#7b1fa2" stroke-width="1"/>
    <text x="12" y="52" font-size="9.5" fill="#d32f2f" font-weight="bold">🔑 PK  message_id  UUID</text>
    <line x1="8" y1="58" x2="202" y2="58" stroke="#e0e0e0" stroke-width="0.5"/>
    <text x="12" y="74" font-size="9.5" fill="#1565c0" font-weight="600">🔗 FK  sender_id  UUID</text>
    <text x="12" y="90" font-size="9.5" fill="#1565c0" font-weight="600">🔗 FK  receiver_id  UUID</text>
    <line x1="8" y1="96" x2="202" y2="96" stroke="#e0e0e0" stroke-width="0.5"/>
    <text x="16" y="112" font-size="9" fill="#37474f">encrypted_body</text><text x="130" y="112" font-size="9" fill="#78909c">TEXT</text>
    <text x="16" y="128" font-size="9" fill="#37474f">delivered</text><text x="130" y="128" font-size="9" fill="#78909c">BOOLEAN</text>
    <text x="16" y="144" font-size="9" fill="#37474f">soft_deleted</text><text x="130" y="144" font-size="9" fill="#78909c">BOOLEAN</text>
  </g>

  <!-- MoodEntries -->
  <g transform="translate(330, 400)" filter="url(#entityShadow)">
    <rect width="210" height="175" rx="8" fill="#ffffff" stroke="#7b1fa2" stroke-width="2"/>
    <rect width="210" height="32" rx="8" fill="url(#entityHeaderPurple)"/>
    <rect y="24" width="210" height="8" fill="url(#entityHeaderPurple)"/>
    <text x="105" y="22" text-anchor="middle" font-size="13" font-weight="bold" fill="#fff">MoodEntries</text>
    <line x1="0" y1="32" x2="210" y2="32" stroke="#7b1fa2" stroke-width="1"/>
    <text x="12" y="52" font-size="9.5" fill="#d32f2f" font-weight="bold">🔑 PK  mood_id  UUID</text>
    <line x1="8" y1="58" x2="202" y2="58" stroke="#e0e0e0" stroke-width="0.5"/>
    <text x="12" y="74" font-size="9.5" fill="#1565c0" font-weight="600">🔗 FK  user_id  UUID</text>
    <line x1="8" y1="80" x2="202" y2="80" stroke="#e0e0e0" stroke-width="0.5"/>
    <text x="16" y="96" font-size="9" fill="#37474f">score</text><text x="130" y="96" font-size="9" fill="#78909c">INT (1-5)</text>
    <text x="16" y="112" font-size="9" fill="#37474f">notes</text><text x="130" y="112" font-size="9" fill="#78909c">TEXT</text>
    <text x="16" y="128" font-size="9" fill="#37474f">entry_date</text><text x="130" y="128" font-size="9" fill="#78909c">DATE</text>
    <text x="16" y="144" font-size="9" fill="#37474f">created_at</text><text x="130" y="144" font-size="9" fill="#78909c">TIMESTAMP</text>
  </g>

  <!-- ChatbotTranscripts -->
  <g transform="translate(620, 400)" filter="url(#entityShadow)">
    <rect width="220" height="175" rx="8" fill="#ffffff" stroke="#e65100" stroke-width="2"/>
    <rect width="220" height="32" rx="8" fill="url(#entityHeaderOrange)"/>
    <rect y="24" width="220" height="8" fill="url(#entityHeaderOrange)"/>
    <text x="110" y="22" text-anchor="middle" font-size="13" font-weight="bold" fill="#fff">ChatbotTranscripts</text>
    <line x1="0" y1="32" x2="220" y2="32" stroke="#e65100" stroke-width="1"/>
    <text x="12" y="52" font-size="9.5" fill="#d32f2f" font-weight="bold">🔑 PK  transcript_id  UUID</text>
    <line x1="8" y1="58" x2="212" y2="58" stroke="#e0e0e0" stroke-width="0.5"/>
    <text x="12" y="74" font-size="9.5" fill="#1565c0" font-weight="600">🔗 FK  user_id  UUID</text>
    <line x1="8" y1="80" x2="212" y2="80" stroke="#e0e0e0" stroke-width="0.5"/>
    <text x="16" y="96" font-size="9" fill="#37474f">query</text><text x="140" y="96" font-size="9" fill="#78909c">TEXT</text>
    <text x="16" y="112" font-size="9" fill="#37474f">response</text><text x="140" y="112" font-size="9" fill="#78909c">TEXT</text>
    <text x="16" y="128" font-size="9" fill="#37474f">confidence</text><text x="140" y="128" font-size="9" fill="#78909c">FLOAT</text>
    <text x="16" y="144" font-size="9" fill="#37474f">escalated</text><text x="140" y="144" font-size="9" fill="#78909c">BOOLEAN</text>
  </g>

  <!-- Notifications -->
  <g transform="translate(920, 400)" filter="url(#entityShadow)">
    <rect width="220" height="195" rx="8" fill="#ffffff" stroke="#e65100" stroke-width="2"/>
    <rect width="220" height="32" rx="8" fill="url(#entityHeaderOrange)"/>
    <rect y="24" width="220" height="8" fill="url(#entityHeaderOrange)"/>
    <text x="110" y="22" text-anchor="middle" font-size="13" font-weight="bold" fill="#fff">Notifications</text>
    <line x1="0" y1="32" x2="220" y2="32" stroke="#e65100" stroke-width="1"/>
    <text x="12" y="52" font-size="9.5" fill="#d32f2f" font-weight="bold">🔑 PK  notif_id  UUID</text>
    <line x1="8" y1="58" x2="212" y2="58" stroke="#e0e0e0" stroke-width="0.5"/>
    <text x="12" y="74" font-size="9.5" fill="#1565c0" font-weight="600">🔗 FK  user_id  UUID</text>
    <line x1="8" y1="80" x2="212" y2="80" stroke="#e0e0e0" stroke-width="0.5"/>
    <text x="16" y="96" font-size="9" fill="#37474f">type</text><text x="140" y="96" font-size="9" fill="#78909c">ENUM</text>
    <text x="16" y="112" font-size="9" fill="#37474f">channel</text><text x="140" y="112" font-size="9" fill="#78909c">ENUM</text>
    <text x="16" y="128" font-size="9" fill="#37474f">payload</text><text x="140" y="128" font-size="9" fill="#78909c">JSON</text>
    <text x="16" y="144" font-size="9" fill="#37474f">status</text><text x="140" y="144" font-size="9" fill="#78909c">ENUM</text>
    <text x="16" y="160" font-size="9" fill="#37474f">retry_count</text><text x="140" y="160" font-size="9" fill="#78909c">INT</text>
    <text x="16" y="176" font-size="9" fill="#37474f">created_at</text><text x="140" y="176" font-size="9" fill="#78909c">TIMESTAMP</text>
  </g>

  <!-- EmergencyLogs -->
  <g transform="translate(1220, 400)" filter="url(#entityShadow)">
    <rect width="220" height="155" rx="8" fill="#ffffff" stroke="#c62828" stroke-width="2"/>
    <rect width="220" height="32" rx="8" fill="url(#entityHeaderRed)"/>
    <rect y="24" width="220" height="8" fill="url(#entityHeaderRed)"/>
    <text x="110" y="22" text-anchor="middle" font-size="13" font-weight="bold" fill="#fff">EmergencyLogs</text>
    <line x1="0" y1="32" x2="220" y2="32" stroke="#c62828" stroke-width="1"/>
    <text x="12" y="52" font-size="9.5" fill="#d32f2f" font-weight="bold">🔑 PK  log_id  UUID</text>
    <line x1="8" y1="58" x2="212" y2="58" stroke="#e0e0e0" stroke-width="0.5"/>
    <text x="12" y="74" font-size="9.5" fill="#1565c0" font-weight="600">🔗 FK  user_id  UUID</text>
    <line x1="8" y1="80" x2="212" y2="80" stroke="#e0e0e0" stroke-width="0.5"/>
    <text x="16" y="96" font-size="9" fill="#37474f">activated_at</text><text x="140" y="96" font-size="9" fill="#78909c">TIMESTAMP</text>
    <text x="16" y="112" font-size="9" fill="#37474f">hotline_data</text><text x="140" y="112" font-size="9" fill="#78909c">JSON</text>
    <text x="16" y="128" font-size="9" fill="#37474f">resolved</text><text x="140" y="128" font-size="9" fill="#78909c">BOOLEAN</text>
  </g>

  <!-- ═══════════════════════════════════════ -->
  <!-- ROW 3 ENTITIES                         -->
  <!-- ═══════════════════════════════════════ -->

  <!-- Resources -->
  <g transform="translate(40, 700)" filter="url(#entityShadow)">
    <rect width="210" height="175" rx="8" fill="#ffffff" stroke="#00838f" stroke-width="2"/>
    <rect width="210" height="32" rx="8" fill="url(#entityHeaderTeal)"/>
    <rect y="24" width="210" height="8" fill="url(#entityHeaderTeal)"/>
    <text x="105" y="22" text-anchor="middle" font-size="13" font-weight="bold" fill="#fff">Resources</text>
    <line x1="0" y1="32" x2="210" y2="32" stroke="#00838f" stroke-width="1"/>
    <text x="12" y="52" font-size="9.5" fill="#d32f2f" font-weight="bold">🔑 PK  resource_id  UUID</text>
    <line x1="8" y1="58" x2="202" y2="58" stroke="#e0e0e0" stroke-width="0.5"/>
    <text x="16" y="76" font-size="9" fill="#37474f">title</text><text x="130" y="76" font-size="9" fill="#78909c">VARCHAR(255)</text>
    <text x="16" y="92" font-size="9" fill="#37474f">url</text><text x="130" y="92" font-size="9" fill="#78909c">TEXT</text>
    <text x="16" y="108" font-size="9" fill="#37474f">url_valid</text><text x="130" y="108" font-size="9" fill="#78909c">BOOLEAN</text>
    <text x="16" y="124" font-size="9" fill="#37474f">category</text><text x="130" y="124" font-size="9" fill="#78909c">VARCHAR</text>
    <text x="16" y="140" font-size="9" fill="#37474f">view_count</text><text x="130" y="140" font-size="9" fill="#78909c">INT</text>
  </g>

  <!-- AnalyticsData -->
  <g transform="translate(330, 700)" filter="url(#entityShadow)">
    <rect width="210" height="160" rx="8" fill="#ffffff" stroke="#00838f" stroke-width="2"/>
    <rect width="210" height="32" rx="8" fill="url(#entityHeaderTeal)"/>
    <rect y="24" width="210" height="8" fill="url(#entityHeaderTeal)"/>
    <text x="105" y="22" text-anchor="middle" font-size="13" font-weight="bold" fill="#fff">AnalyticsData</text>
    <line x1="0" y1="32" x2="210" y2="32" stroke="#00838f" stroke-width="1"/>
    <text x="12" y="52" font-size="9.5" fill="#d32f2f" font-weight="bold">🔑 PK  analytics_id  UUID</text>
    <line x1="8" y1="58" x2="202" y2="58" stroke="#e0e0e0" stroke-width="0.5"/>
    <text x="16" y="76" font-size="9" fill="#37474f">report_type</text><text x="130" y="76" font-size="9" fill="#78909c">ENUM</text>
    <text x="16" y="92" font-size="9" fill="#37474f">data</text><text x="130" y="92" font-size="9" fill="#78909c">JSON</text>
    <text x="16" y="108" font-size="9" fill="#37474f">period</text><text x="130" y="108" font-size="9" fill="#78909c">VARCHAR</text>
    <text x="16" y="124" font-size="9" fill="#37474f">generated_at</text><text x="130" y="124" font-size="9" fill="#78909c">TIMESTAMP</text>
  </g>

  <!-- AuditLogs -->
  <g transform="translate(620, 700)" filter="url(#entityShadow)">
    <rect width="220" height="210" rx="8" fill="#ffffff" stroke="#c62828" stroke-width="2"/>
    <rect width="220" height="32" rx="8" fill="url(#entityHeaderRed)"/>
    <rect y="24" width="220" height="8" fill="url(#entityHeaderRed)"/>
    <text x="110" y="22" text-anchor="middle" font-size="13" font-weight="bold" fill="#fff">AuditLogs</text>
    <line x1="0" y1="32" x2="220" y2="32" stroke="#c62828" stroke-width="1"/>
    <text x="12" y="52" font-size="9.5" fill="#d32f2f" font-weight="bold">🔑 PK  audit_id  UUID</text>
    <line x1="8" y1="58" x2="212" y2="58" stroke="#e0e0e0" stroke-width="0.5"/>
    <text x="12" y="74" font-size="9.5" fill="#1565c0" font-weight="600">🔗 FK  user_id  UUID</text>
    <line x1="8" y1="80" x2="212" y2="80" stroke="#e0e0e0" stroke-width="0.5"/>
    <text x="16" y="96" font-size="9" fill="#37474f">action</text><text x="140" y="96" font-size="9" fill="#78909c">VARCHAR</text>
    <text x="16" y="112" font-size="9" fill="#37474f">entity_type</text><text x="140" y="112" font-size="9" fill="#78909c">VARCHAR</text>
    <text x="16" y="128" font-size="9" fill="#37474f">entity_id</text><text x="140" y="128" font-size="9" fill="#78909c">UUID</text>
    <text x="16" y="144" font-size="9" fill="#37474f">ip_address</text><text x="140" y="144" font-size="9" fill="#78909c">INET</text>
    <text x="16" y="160" font-size="9" fill="#37474f">details</text><text x="140" y="160" font-size="9" fill="#78909c">JSON</text>
    <text x="16" y="176" font-size="9" fill="#37474f">created_at</text><text x="140" y="176" font-size="9" fill="#78909c">TIMESTAMP</text>
  </g>

  <!-- ConsentRecords -->
  <g transform="translate(920, 700)" filter="url(#entityShadow)">
    <rect width="220" height="160" rx="8" fill="#ffffff" stroke="#00838f" stroke-width="2"/>
    <rect width="220" height="32" rx="8" fill="url(#entityHeaderTeal)"/>
    <rect y="24" width="220" height="8" fill="url(#entityHeaderTeal)"/>
    <text x="110" y="22" text-anchor="middle" font-size="13" font-weight="bold" fill="#fff">ConsentRecords</text>
    <line x1="0" y1="32" x2="220" y2="32" stroke="#00838f" stroke-width="1"/>
    <text x="12" y="52" font-size="9.5" fill="#d32f2f" font-weight="bold">🔑 PK  consent_id  UUID</text>
    <line x1="8" y1="58" x2="212" y2="58" stroke="#e0e0e0" stroke-width="0.5"/>
    <text x="12" y="74" font-size="9.5" fill="#1565c0" font-weight="600">🔗 FK  user_id  UUID</text>
    <line x1="8" y1="80" x2="212" y2="80" stroke="#e0e0e0" stroke-width="0.5"/>
    <text x="16" y="96" font-size="9" fill="#37474f">consent_type</text><text x="140" y="96" font-size="9" fill="#78909c">ENUM</text>
    <text x="16" y="112" font-size="9" fill="#37474f">granted</text><text x="140" y="112" font-size="9" fill="#78909c">BOOLEAN</text>
    <text x="16" y="128" font-size="9" fill="#37474f">changed_at</text><text x="140" y="128" font-size="9" fill="#78909c">TIMESTAMP</text>
  </g>

  <!-- SystemBackups -->
  <g transform="translate(1220, 700)" filter="url(#entityShadow)">
    <rect width="220" height="160" rx="8" fill="#ffffff" stroke="#c62828" stroke-width="2"/>
    <rect width="220" height="32" rx="8" fill="url(#entityHeaderRed)"/>
    <rect y="24" width="220" height="8" fill="url(#entityHeaderRed)"/>
    <text x="110" y="22" text-anchor="middle" font-size="13" font-weight="bold" fill="#fff">SystemBackups</text>
    <line x1="0" y1="32" x2="220" y2="32" stroke="#c62828" stroke-width="1"/>
    <text x="12" y="52" font-size="9.5" fill="#d32f2f" font-weight="bold">🔑 PK  backup_id  UUID</text>
    <line x1="8" y1="58" x2="212" y2="58" stroke="#e0e0e0" stroke-width="0.5"/>
    <text x="16" y="76" font-size="9" fill="#37474f">backup_date</text><text x="140" y="76" font-size="9" fill="#78909c">DATE</text>
    <text x="16" y="92" font-size="9" fill="#37474f">file_path</text><text x="140" y="92" font-size="9" fill="#78909c">TEXT</text>
    <text x="16" y="108" font-size="9" fill="#37474f">size_mb</text><text x="140" y="108" font-size="9" fill="#78909c">FLOAT</text>
    <text x="16" y="124" font-size="9" fill="#37474f">status</text><text x="140" y="124" font-size="9" fill="#78909c">ENUM</text>
  </g>


  <!-- ═══════════════════════════════════════════════════════════════ -->
  <!-- RELATIONSHIP ARROWS (drawn LAST so they render on top)        -->
  <!-- All lines: full opacity, solid stroke, color-coded             -->
  <!-- ═══════════════════════════════════════════════════════════════ -->

  <!-- ─── R1: Users ──||── Profiles (1:1) ─── -->
  <line x1="250" y1="165" x2="330" y2="165" stroke="#1565c0" stroke-width="2.5"/>
  <!-- || at Users side -->
  <line x1="258" y1="157" x2="258" y2="173" stroke="#1565c0" stroke-width="2.5"/>
  <line x1="264" y1="157" x2="264" y2="173" stroke="#1565c0" stroke-width="2.5"/>
  <!-- || at Profiles side -->
  <line x1="322" y1="157" x2="322" y2="173" stroke="#1565c0" stroke-width="2.5"/>
  <line x1="316" y1="157" x2="316" y2="173" stroke="#1565c0" stroke-width="2.5"/>
  <rect x="275" y="153" width="32" height="14" rx="4" fill="#fff"/>
  <text x="291" y="164" text-anchor="middle" font-size="9" font-weight="bold" fill="#1565c0">1 : 1</text>

  <!-- ─── R2: Users ──|< Appointments (1:N) via patient_id ─── -->
  <!-- Horizontal at y=200 from Users through Profiles area to Appointments -->
  <line x1="250" y1="200" x2="580" y2="200" stroke="#2e7d32" stroke-width="2.2"/>
  <line x1="580" y1="200" x2="620" y2="164" stroke="#2e7d32" stroke-width="2.2"/>
  <!-- || at Users -->
  <line x1="258" y1="192" x2="258" y2="208" stroke="#2e7d32" stroke-width="2.5"/>
  <line x1="264" y1="192" x2="264" y2="208" stroke="#2e7d32" stroke-width="2.5"/>
  <!-- Crow's foot at Appointments -->
  <line x1="620" y1="164" x2="607" y2="156" stroke="#2e7d32" stroke-width="2.2"/>
  <line x1="620" y1="164" x2="607" y2="164" stroke="#2e7d32" stroke-width="2.2"/>
  <line x1="620" y1="164" x2="607" y2="172" stroke="#2e7d32" stroke-width="2.2"/>
  <rect x="395" y="188" width="42" height="16" rx="4" fill="#fff"/>
  <text x="416" y="200" text-anchor="middle" font-size="9" font-weight="bold" fill="#2e7d32">1 : N</text>

  <!-- ─── R3: Users ──|< ClinicalRecords (1:N) via patient_id ─── -->
  <!-- Horizontal at y=230 from Users through Profiles+Appointments area to ClinicalRecords -->
  <line x1="250" y1="230" x2="880" y2="230" stroke="#2e7d32" stroke-width="2.2"/>
  <line x1="880" y1="230" x2="920" y2="180" stroke="#2e7d32" stroke-width="2.2"/>
  <!-- || at Users -->
  <line x1="258" y1="222" x2="258" y2="238" stroke="#2e7d32" stroke-width="2.5"/>
  <line x1="264" y1="222" x2="264" y2="238" stroke="#2e7d32" stroke-width="2.5"/>
  <!-- Crow's foot at ClinicalRecords -->
  <line x1="920" y1="180" x2="907" y2="172" stroke="#2e7d32" stroke-width="2.2"/>
  <line x1="920" y1="180" x2="907" y2="180" stroke="#2e7d32" stroke-width="2.2"/>
  <line x1="920" y1="180" x2="907" y2="188" stroke="#2e7d32" stroke-width="2.2"/>
  <rect x="560" y="218" width="42" height="16" rx="4" fill="#fff"/>
  <text x="581" y="230" text-anchor="middle" font-size="9" font-weight="bold" fill="#2e7d32">1 : N</text>

  <!-- ─── R4: ClinicalRecords ──|< ClinicalDocuments (1:N) ─── -->
  <line x1="1140" y1="175" x2="1220" y2="175" stroke="#2e7d32" stroke-width="2.5"/>
  <!-- || at ClinicalRecords -->
  <line x1="1148" y1="167" x2="1148" y2="183" stroke="#2e7d32" stroke-width="2.5"/>
  <line x1="1154" y1="167" x2="1154" y2="183" stroke="#2e7d32" stroke-width="2.5"/>
  <!-- Crow's foot at ClinicalDocuments -->
  <line x1="1220" y1="175" x2="1206" y2="167" stroke="#2e7d32" stroke-width="2.2"/>
  <line x1="1220" y1="175" x2="1206" y2="175" stroke="#2e7d32" stroke-width="2.2"/>
  <line x1="1220" y1="175" x2="1206" y2="183" stroke="#2e7d32" stroke-width="2.2"/>
  <rect x="1166" y="163" width="42" height="16" rx="4" fill="#fff"/>
  <text x="1187" y="175" text-anchor="middle" font-size="9" font-weight="bold" fill="#2e7d32">1 : N</text>


  <!-- ═══ ROW 1 → ROW 2 VERTICAL CONNECTIONS ═══ -->

  <!-- ─── R5: Users ──|< ChatMessages (1:N) — straight vertical ─── -->
  <line x1="100" y1="300" x2="100" y2="400" stroke="#7b1fa2" stroke-width="2.5"/>
  <!-- || at Users bottom -->
  <line x1="92" y1="306" x2="108" y2="306" stroke="#7b1fa2" stroke-width="2.5"/>
  <line x1="92" y1="312" x2="108" y2="312" stroke="#7b1fa2" stroke-width="2.5"/>
  <!-- Crow's foot at ChatMessages top -->
  <line x1="100" y1="400" x2="90" y2="386" stroke="#7b1fa2" stroke-width="2.2"/>
  <line x1="100" y1="400" x2="100" y2="386" stroke="#7b1fa2" stroke-width="2.2"/>
  <line x1="100" y1="400" x2="110" y2="386" stroke="#7b1fa2" stroke-width="2.2"/>
  <rect x="106" y="342" width="42" height="16" rx="4" fill="#f8fafe"/>
  <text x="127" y="354" text-anchor="middle" font-size="9" font-weight="bold" fill="#7b1fa2">1 : N</text>

  <!-- ─── R6: Users ──|< MoodEntries (1:N) — L-shape ─── -->
  <polyline points="150,300 150,335 435,335 435,400" fill="none" stroke="#7b1fa2" stroke-width="2.2"/>
  <!-- || at Users bottom -->
  <line x1="142" y1="306" x2="158" y2="306" stroke="#7b1fa2" stroke-width="2.5"/>
  <line x1="142" y1="312" x2="158" y2="312" stroke="#7b1fa2" stroke-width="2.5"/>
  <!-- Crow's foot at MoodEntries top -->
  <line x1="435" y1="400" x2="425" y2="386" stroke="#7b1fa2" stroke-width="2.2"/>
  <line x1="435" y1="400" x2="435" y2="386" stroke="#7b1fa2" stroke-width="2.2"/>
  <line x1="435" y1="400" x2="445" y2="386" stroke="#7b1fa2" stroke-width="2.2"/>
  <rect x="258" y="323" width="42" height="16" rx="4" fill="#f8fafe"/>
  <text x="279" y="335" text-anchor="middle" font-size="9" font-weight="bold" fill="#7b1fa2">1 : N</text>

  <!-- ─── R7: Users ──|< ChatbotTranscripts (1:N) — L-shape ─── -->
  <polyline points="175,300 175,350 730,350 730,400" fill="none" stroke="#e65100" stroke-width="2.2"/>
  <!-- || at Users bottom -->
  <line x1="167" y1="306" x2="183" y2="306" stroke="#e65100" stroke-width="2.5"/>
  <line x1="167" y1="312" x2="183" y2="312" stroke="#e65100" stroke-width="2.5"/>
  <!-- Crow's foot at ChatbotTranscripts top -->
  <line x1="730" y1="400" x2="720" y2="386" stroke="#e65100" stroke-width="2.2"/>
  <line x1="730" y1="400" x2="730" y2="386" stroke="#e65100" stroke-width="2.2"/>
  <line x1="730" y1="400" x2="740" y2="386" stroke="#e65100" stroke-width="2.2"/>
  <rect x="420" y="338" width="42" height="16" rx="4" fill="#f8fafe"/>
  <text x="441" y="350" text-anchor="middle" font-size="9" font-weight="bold" fill="#e65100">1 : N</text>

  <!-- ─── R8: Users ──|< Notifications (1:N) — L-shape ─── -->
  <polyline points="200,300 200,365 1030,365 1030,400" fill="none" stroke="#e65100" stroke-width="2.2"/>
  <!-- || at Users bottom -->
  <line x1="192" y1="306" x2="208" y2="306" stroke="#e65100" stroke-width="2.5"/>
  <line x1="192" y1="312" x2="208" y2="312" stroke="#e65100" stroke-width="2.5"/>
  <!-- Crow's foot at Notifications top -->
  <line x1="1030" y1="400" x2="1020" y2="386" stroke="#e65100" stroke-width="2.2"/>
  <line x1="1030" y1="400" x2="1030" y2="386" stroke="#e65100" stroke-width="2.2"/>
  <line x1="1030" y1="400" x2="1040" y2="386" stroke="#e65100" stroke-width="2.2"/>
  <rect x="590" y="353" width="42" height="16" rx="4" fill="#f8fafe"/>
  <text x="611" y="365" text-anchor="middle" font-size="9" font-weight="bold" fill="#e65100">1 : N</text>

  <!-- ─── R9: Users ──|< EmergencyLogs (1:N) — L-shape ─── -->
  <polyline points="225,300 225,380 1330,380 1330,400" fill="none" stroke="#c62828" stroke-width="2.2"/>
  <!-- || at Users bottom -->
  <line x1="217" y1="306" x2="233" y2="306" stroke="#c62828" stroke-width="2.5"/>
  <line x1="217" y1="312" x2="233" y2="312" stroke="#c62828" stroke-width="2.5"/>
  <!-- Crow's foot at EmergencyLogs top -->
  <line x1="1330" y1="400" x2="1320" y2="386" stroke="#c62828" stroke-width="2.2"/>
  <line x1="1330" y1="400" x2="1330" y2="386" stroke="#c62828" stroke-width="2.2"/>
  <line x1="1330" y1="400" x2="1340" y2="386" stroke="#c62828" stroke-width="2.2"/>
  <rect x="750" y="368" width="42" height="16" rx="4" fill="#f8fafe"/>
  <text x="771" y="380" text-anchor="middle" font-size="9" font-weight="bold" fill="#c62828">1 : N</text>


  <!-- ═══ ROW 2 → ROW 3 VERTICAL CONNECTIONS ═══ -->

  <!-- ─── R10: Users ──|< AuditLogs (1:N) — via ChatbotTranscripts column ─── -->
  <line x1="730" y1="575" x2="730" y2="700" stroke="#c62828" stroke-width="2.5"/>
  <!-- || at top -->
  <line x1="722" y1="581" x2="738" y2="581" stroke="#c62828" stroke-width="2.5"/>
  <line x1="722" y1="587" x2="738" y2="587" stroke="#c62828" stroke-width="2.5"/>
  <!-- Crow's foot at AuditLogs top -->
  <line x1="730" y1="700" x2="720" y2="686" stroke="#c62828" stroke-width="2.2"/>
  <line x1="730" y1="700" x2="730" y2="686" stroke="#c62828" stroke-width="2.2"/>
  <line x1="730" y1="700" x2="740" y2="686" stroke="#c62828" stroke-width="2.2"/>
  <rect x="736" y="628" width="42" height="16" rx="4" fill="#f8fafe"/>
  <text x="757" y="640" text-anchor="middle" font-size="9" font-weight="bold" fill="#c62828">1 : N</text>

  <!-- ─── R11: Users ──|< ConsentRecords (1:N) — via Notifications column ─── -->
  <line x1="1030" y1="595" x2="1030" y2="700" stroke="#00838f" stroke-width="2.5"/>
  <!-- || at top -->
  <line x1="1022" y1="601" x2="1038" y2="601" stroke="#00838f" stroke-width="2.5"/>
  <line x1="1022" y1="607" x2="1038" y2="607" stroke="#00838f" stroke-width="2.5"/>
  <!-- Crow's foot at ConsentRecords top -->
  <line x1="1030" y1="700" x2="1020" y2="686" stroke="#00838f" stroke-width="2.2"/>
  <line x1="1030" y1="700" x2="1030" y2="686" stroke="#00838f" stroke-width="2.2"/>
  <line x1="1030" y1="700" x2="1040" y2="686" stroke="#00838f" stroke-width="2.2"/>
  <rect x="1036" y="640" width="42" height="16" rx="4" fill="#f8fafe"/>
  <text x="1057" y="652" text-anchor="middle" font-size="9" font-weight="bold" fill="#00838f">1 : N</text>


  <!-- ─── R12: Users ──|< Resources (1:N) — via ChatMessages col down to Resources ─── -->
  <polyline points="70,575 70,640 145,640 145,700" fill="none" stroke="#00838f" stroke-width="2.5"/>
  <!-- || at ChatMessages bottom -->
  <line x1="62" y1="581" x2="78" y2="581" stroke="#00838f" stroke-width="2.5"/>
  <line x1="62" y1="587" x2="78" y2="587" stroke="#00838f" stroke-width="2.5"/>
  <!-- Crow's foot at Resources top -->
  <line x1="145" y1="700" x2="135" y2="686" stroke="#00838f" stroke-width="2.2"/>
  <line x1="145" y1="700" x2="145" y2="686" stroke="#00838f" stroke-width="2.2"/>
  <line x1="145" y1="700" x2="155" y2="686" stroke="#00838f" stroke-width="2.2"/>
  <rect x="76" y="628" width="42" height="16" rx="4" fill="#f8fafe"/>
  <text x="97" y="640" text-anchor="middle" font-size="9" font-weight="bold" fill="#00838f">1 : N</text>

  <!-- ─── R13: Users ──|< AnalyticsData (1:N) — via MoodEntries col down to AnalyticsData ─── -->
  <polyline points="435,575 435,640 435,700" fill="none" stroke="#00838f" stroke-width="2.5"/>
  <!-- || at MoodEntries bottom -->
  <line x1="427" y1="581" x2="443" y2="581" stroke="#00838f" stroke-width="2.5"/>
  <line x1="427" y1="587" x2="443" y2="587" stroke="#00838f" stroke-width="2.5"/>
  <!-- Crow's foot at AnalyticsData top -->
  <line x1="435" y1="700" x2="425" y2="686" stroke="#00838f" stroke-width="2.2"/>
  <line x1="435" y1="700" x2="435" y2="686" stroke="#00838f" stroke-width="2.2"/>
  <line x1="435" y1="700" x2="445" y2="686" stroke="#00838f" stroke-width="2.2"/>
  <rect x="441" y="628" width="42" height="16" rx="4" fill="#f8fafe"/>
  <text x="462" y="640" text-anchor="middle" font-size="9" font-weight="bold" fill="#00838f">1 : N</text>

  <!-- ─── R14: Users ──|< SystemBackups (1:N) — via EmergencyLogs col down to SystemBackups ─── -->
  <polyline points="1330,555 1330,640 1330,700" fill="none" stroke="#c62828" stroke-width="2.5"/>
  <!-- || at EmergencyLogs bottom -->
  <line x1="1322" y1="561" x2="1338" y2="561" stroke="#c62828" stroke-width="2.5"/>
  <line x1="1322" y1="567" x2="1338" y2="567" stroke="#c62828" stroke-width="2.5"/>
  <!-- Crow's foot at SystemBackups top -->
  <line x1="1330" y1="700" x2="1320" y2="686" stroke="#c62828" stroke-width="2.2"/>
  <line x1="1330" y1="700" x2="1330" y2="686" stroke="#c62828" stroke-width="2.2"/>
  <line x1="1330" y1="700" x2="1340" y2="686" stroke="#c62828" stroke-width="2.2"/>
  <rect x="1336" y="618" width="42" height="16" rx="4" fill="#f8fafe"/>
  <text x="1357" y="630" text-anchor="middle" font-size="9" font-weight="bold" fill="#c62828">1 : N</text>


  <!-- ═══════════════════════════════════════════════════════════════ -->
  <!-- LEGEND                                                         -->
  <!-- ═══════════════════════════════════════════════════════════════ -->
  <rect x="40" y="950" width="1440" height="280" rx="14" fill="#ffffff" stroke="#cfd8dc" stroke-width="1.5" filter="url(#entityShadow)"/>
  <rect x="40" y="950" width="1440" height="38" rx="14" fill="url(#headerBg)"/>
  <rect x="40" y="976" width="1440" height="12" fill="url(#headerBg)"/>
  <text x="760" y="976" text-anchor="middle" font-size="15" font-weight="bold" fill="#ffffff">Legend — ERD Notation Guide</text>

  <!-- Crow's Foot Notation Examples -->
  <text x="80" y="1020" font-size="12" font-weight="bold" fill="#1a237e">Crow's Foot Notation:</text>

  <!-- One-to-One -->
  <line x1="80" y1="1045" x2="180" y2="1045" stroke="#546e7a" stroke-width="2.5"/>
  <line x1="88" y1="1037" x2="88" y2="1053" stroke="#546e7a" stroke-width="2.5"/>
  <line x1="94" y1="1037" x2="94" y2="1053" stroke="#546e7a" stroke-width="2.5"/>
  <line x1="172" y1="1037" x2="172" y2="1053" stroke="#546e7a" stroke-width="2.5"/>
  <line x1="166" y1="1037" x2="166" y2="1053" stroke="#546e7a" stroke-width="2.5"/>
  <text x="200" y="1050" font-size="10" fill="#37474f">One-to-One (1:1)</text>

  <!-- One-to-Many -->
  <line x1="80" y1="1080" x2="180" y2="1080" stroke="#546e7a" stroke-width="2.5"/>
  <line x1="88" y1="1072" x2="88" y2="1088" stroke="#546e7a" stroke-width="2.5"/>
  <line x1="94" y1="1072" x2="94" y2="1088" stroke="#546e7a" stroke-width="2.5"/>
  <line x1="180" y1="1080" x2="166" y2="1070" stroke="#546e7a" stroke-width="2"/>
  <line x1="180" y1="1080" x2="166" y2="1080" stroke="#546e7a" stroke-width="2"/>
  <line x1="180" y1="1080" x2="166" y2="1090" stroke="#546e7a" stroke-width="2"/>
  <text x="200" y="1085" font-size="10" fill="#37474f">One-to-Many (1:N)</text>

  <!-- Key Symbols -->
  <text x="440" y="1020" font-size="12" font-weight="bold" fill="#1a237e">Key Symbols:</text>
  <text x="440" y="1050" font-size="11" fill="#d32f2f" font-weight="bold">🔑 PK</text>
  <text x="510" y="1050" font-size="10" fill="#37474f">Primary Key — Unique identifier for each record</text>
  <text x="440" y="1080" font-size="11" fill="#1565c0" font-weight="600">🔗 FK</text>
  <text x="510" y="1080" font-size="10" fill="#37474f">Foreign Key — References another table's primary key</text>

  <!-- Entity Categories -->
  <text x="80" y="1120" font-size="12" font-weight="bold" fill="#1a237e">Entity Categories:</text>
  <rect x="80" y="1135" width="20" height="14" rx="4" fill="url(#entityHeader)"/>
  <text x="110" y="1147" font-size="10" fill="#37474f">Core / User (Users, Profiles)</text>
  <rect x="80" y="1158" width="20" height="14" rx="4" fill="url(#entityHeaderGreen)"/>
  <text x="110" y="1170" font-size="10" fill="#37474f">Clinical (Appointments, ClinicalRecords, ClinicalDocuments)</text>
  <rect x="80" y="1181" width="20" height="14" rx="4" fill="url(#entityHeaderPurple)"/>
  <text x="110" y="1193" font-size="10" fill="#37474f">Communication (ChatMessages, MoodEntries)</text>

  <rect x="580" y="1135" width="20" height="14" rx="4" fill="url(#entityHeaderOrange)"/>
  <text x="610" y="1147" font-size="10" fill="#37474f">AI &amp; Notifications (ChatbotTranscripts, Notifications)</text>
  <rect x="580" y="1158" width="20" height="14" rx="4" fill="url(#entityHeaderRed)"/>
  <text x="610" y="1170" font-size="10" fill="#37474f">Security &amp; System (EmergencyLogs, AuditLogs, SystemBackups)</text>
  <rect x="580" y="1181" width="20" height="14" rx="4" fill="url(#entityHeaderTeal)"/>
  <text x="610" y="1193" font-size="10" fill="#37474f">Privacy &amp; Data (Resources, AnalyticsData, ConsentRecords)</text>

  <!-- Relationships Summary -->
  <text x="80" y="1215" font-size="12" font-weight="bold" fill="#1a237e">Relationships Summary:</text>
  <text x="80" y="1232" font-size="9.5" fill="#455a64">Users ─||─ Profiles (1:1)  •  Users ─|&lt; Appointments (1:N)  •  Users ─|&lt; ClinicalRecords (1:N)  •  ClinicalRecords ─|&lt; ClinicalDocuments (1:N)</text>
  <text x="80" y="1248" font-size="9.5" fill="#455a64">Users ─|&lt; ChatMessages (1:N)  •  Users ─|&lt; MoodEntries (1:N)  •  Users ─|&lt; ChatbotTranscripts (1:N)  •  Users ─|&lt; Notifications (1:N)</text>
  <text x="80" y="1264" font-size="9.5" fill="#455a64">Users ─|&lt; EmergencyLogs (1:N)  •  Users ─|&lt; AuditLogs (1:N)  •  Users ─|&lt; ConsentRecords (1:N)  •  Users ─|&lt; Resources (1:N)  •  Users ─|&lt; AnalyticsData (1:N)</text>
  <text x="80" y="1280" font-size="9.5" fill="#455a64">Users ─|&lt; SystemBackups (1:N)  •  Total: 15 Entities  •  14 Relationships</text>

  <!-- Footer -->
  <text x="760" y="1330" text-anchor="middle" font-size="9.5" fill="#90a4ae" font-style="italic">Figure 9.1 — Entity Relationship Diagram  |  Mental Health Support Platform  |  Mel23 Tech Solution  |  © 2026 Kent Institute of Technology Australia</text>
</svg>